<?xml version="1.0" encoding="iso-8859-1"?>
<!-- Generator: Adobe Illustrator 19.0.0, SVG Export Plug-In . SVG Version: 6.00 Build 0)  -->
<svg xmlns="http://www.w3.org/2000/svg" xmlns:xlink="http://www.w3.org/1999/xlink" version="1.1" id="Capa_1" x="0px" y="0px" viewBox="0 0 496 496" style="enable-background:new 0 0 496 496;" xml:space="preserve" width="512px" height="512px">
<g>
	<g>
		<path d="M471.032,392c-6.576,0-13.008,2.664-17.656,7.312l-8.496,8.496L438.312,401c-54-55.928-106.52-114.544-157-175    l12.352-12.352l-11.312-11.312l-11.328,11.328c-20.048-24.248-39.792-48.768-59.12-73.552l-12.624,9.832    c19.728,25.304,39.896,50.328,60.384,75.08l-34.584,34.584C164.736,209.64,102.672,161.776,39.2,116.432    C24.672,106.08,16,89.232,16,71.384C16,40.84,40.84,16,71.384,16c17.84,0,34.696,8.672,45.072,23.192    c19.392,27.16,40.016,55.016,63.088,85.2l9.976,12.912l12.656-9.784l-9.944-12.88c-22.936-30.016-43.464-57.744-62.76-84.752    C116.104,11.176,94.384,0,71.384,0C32.024,0,0,32.024,0,71.384c0,23,11.168,44.72,29.888,58.088    c62.752,44.824,124.12,92.144,183.808,141.512l-11.36,11.36l11.312,11.312l12.416-12.416    c60.24,50.328,118.712,102.768,174.944,157.056l6.8,6.568l-8.504,8.504c-4.712,4.72-7.304,10.992-7.304,17.664    C392,484.8,403.2,496,416.968,496c6.576,0,13.008-2.664,17.656-7.312l54.064-54.064c4.72-4.712,7.312-10.984,7.312-17.656    C496,403.2,484.8,392,471.032,392z M237.416,269.896l32.52-32.52c6.28,7.512,12.576,15,18.92,22.456l-29.048,29.048    C252.36,282.536,244.928,276.168,237.416,269.896z M272.056,299.256l27.24-27.24c3.912,4.552,7.792,9.128,11.72,13.656    l-25.368,25.368C281.12,307.104,276.6,303.168,272.056,299.256z M297.688,321.624l23.92-23.92    c3.952,4.504,7.896,9.024,11.872,13.504l-22.296,22.296C306.704,329.528,302.192,325.584,297.688,321.624z M323.216,344.096    l20.928-20.928c27.112,30.272,54.68,59.984,82.648,88.952l3.648,3.776l-14.528,14.536l-3.784-3.648    C383.056,398.728,353.4,371.144,323.216,344.096z M477.376,423.312l-54.064,54.064c-1.672,1.664-3.984,2.624-6.344,2.624    c-4.944,0-8.968-4.024-8.968-8.968c0-2.4,0.928-4.648,2.624-6.344l54.064-54.064c1.672-1.664,3.984-2.624,6.344-2.624    c4.944,0,8.968,4.024,8.968,8.968C480,419.368,479.072,421.616,477.376,423.312z" fill="#acacac"/>
	</g>
</g>
<g>
	<g>
		<path d="M56,40c0,8.824-7.176,16-16,16v16c17.648,0,32-14.352,32-32H56z" fill="#acacac"/>
	</g>
</g>
<g>
	<g>
		<path d="M104,288C46.656,288,0,334.656,0,392s46.656,104,104,104s104-46.656,104-104S161.344,288,104,288z M16,392    c0-21.144,7.504-40.56,19.976-55.744c4.624,5.64,8.536,11.752,11.6,18.264l-7.136,2.6l5.472,15.04l7.136-2.6    c1.24,4.72,2.144,9.536,2.592,14.44H48v16h7.632c-0.448,4.904-1.344,9.72-2.592,14.44l-7.136-2.6l-5.472,15.04l7.136,2.6    c-3.072,6.512-6.976,12.632-11.6,18.264C23.504,432.56,16,413.144,16,392z M104,480c-21.608,0-41.392-7.856-56.72-20.824    c6.264-7.384,11.4-15.536,15.344-24.216l7.88,2.872l5.472-15.04l-7.8-2.84c1.808-6.48,2.936-13.168,3.456-19.944H80v-16h-8.368    c-0.52-6.784-1.656-13.464-3.456-19.944l7.8-2.84l-5.472-15.04l-7.88,2.856c-3.944-8.688-9.08-16.832-15.344-24.216    C62.608,311.856,82.392,304,104,304c23.712,0,45.216,9.472,61.056,24.768c-4.84,6.312-8.88,13.112-12.128,20.28l-7.88-2.864    l-5.472,15.032l7.8,2.84c-1.808,6.48-2.936,13.168-3.456,19.952h-8.368v16h8.368c0.52,6.784,1.656,13.464,3.456,19.952l-7.8,2.84    l5.472,15.032l7.88-2.864c3.248,7.16,7.288,13.968,12.128,20.28C149.216,470.528,127.712,480,104,480z M175.752,442.768    c-2.984-4.216-5.592-8.656-7.776-13.288l7.128-2.592l-5.472-15.04l-7.128,2.592c-1.24-4.72-2.144-9.536-2.592-14.44h7.632v-16    h-7.624c0.448-4.904,1.344-9.72,2.592-14.44l7.128,2.592l5.472-15.04l-7.128-2.592c2.184-4.64,4.792-9.072,7.776-13.288    C185.944,355.592,192,373.088,192,392S185.944,428.408,175.752,442.768z" fill="#acacac"/>
	</g>
</g>
<g>
</g>
<g>
</g>
<g>
</g>
<g>
</g>
<g>
</g>
<g>
</g>
<g>
</g>
<g>
</g>
<g>
</g>
<g>
</g>
<g>
</g>
<g>
</g>
<g>
</g>
<g>
</g>
<g>
</g>
</svg>
