<?xml version="1.0"?>
<svg xmlns="http://www.w3.org/2000/svg" height="512px" viewBox="0 0 512.00018 512" width="512px"><path d="m468.105469 7.5c-10.039063-10-26.273438-10-36.308594 0l-189.808594 189.800781c-7.078125 7.074219-13.6875 14.601563-19.789062 22.535157l-105.617188 137.300781c-4.300781 5.578125-8.957031 10.878906-13.933593 15.863281l-66.003907 65.996094c-9.789062-4.6875-21.46875-2.714844-29.175781 4.925781-9.957031 10.058594-9.957031 26.257813 0 36.316406l24.25 24.246094c10.035156 10.011719 26.28125 10.011719 36.316406 0 7.671875-7.695313 9.648438-19.398437 4.933594-29.1875l19.300781-19.300781 46.6875-46.675782c4.984375-4.980468 10.28125-9.636718 15.863281-13.9375l137.300782-105.605468c7.9375-6.101563 15.46875-12.710938 22.546875-19.789063l189.804687-189.792969c4.820313-4.8125 7.527344-11.34375 7.527344-18.152343 0-6.8125-2.707031-13.34375-7.527344-18.15625zm-223.785157 297.515625-37.371093-37.367187 10.589843-13.773438 40.550782 40.550781zm-34.253906 26.351563-29.464844-29.464844 15.863282-20.617188 34.21875 34.21875zm-99.578125 82.277343-12.175781-12.175781 12.175781-12.175781 12.1875 12.175781zm-24.242187 24.242188-12.175782-12.175781 12.175782-12.175782 12.179687 12.175782zm-36.429688 12.066406 12.1875-12.210937 12.175782 12.179687-12.183594 12.210937zm6.152344 42.464844c-1.613281 1.617187-3.804688 2.523437-6.089844 2.523437s-4.480468-.90625-6.09375-2.523437l-24.242187-24.246094c-1.648438-1.636719-2.542969-3.882813-2.476563-6.203125-.019531-2.242188.875-4.398438 2.476563-5.972656 3.367187-3.34375 8.800781-3.34375 12.167969 0l24.25 24.242187c1.644531 1.636719 2.535156 3.878907 2.46875 6.195313.03125 2.246094-.859376 4.40625-2.460938 5.984375zm88.449219-110.566407c-3.214844 2.480469-6.355469 5.117188-9.386719 7.808594l-12.6875-12.691406c2.695312-3.054688 5.316406-6.203125 7.796875-9.386719l39.996094-51.992187 26.316406 26.308594zm347.957031-313.738281-189.765625 189.800781c-6.554687 6.554688-13.53125 12.675782-20.882813 18.328126l-9.992187 7.679687-43.699219-43.691406 7.679688-10c5.65625-7.34375 11.777344-14.316407 18.332031-20.871094l189.816406-189.75c3.363281-3.351563 8.808594-3.351563 12.175781 0l36.335938 36.335937c1.617188 1.613282 2.523438 3.800782 2.523438 6.085938 0 2.28125-.90625 4.46875-2.523438 6.082031zm0 0" fill="#acacac"/><path d="m34.988281 203.929688c29.613281 29.746093 72.742188 41.636718 113.414063 31.265624.402344-.039062.796875-.113281 1.1875-.210937.078125 0 .121094-.09375.195312-.121094 41.707032-10.769531 74.28125-43.332031 85.0625-85.035156 0-.085937.101563-.152344.136719-.238281.0625-.296875.113281-.601563.144531-.90625 10.296875-40.355469-1.226562-83.160156-30.394531-112.890625s-71.746094-42.074219-112.292969-32.550781c-.246094.050781-.496094 0-.742187.0625-.246094.058593-.28125.167968-.433594.230468-43.441406 10.34375-77.359375 44.257813-87.714844 87.695313-.050781.164062-.179687.28125-.230469.453125-.050781.167968 0 .503906-.058593.757812-9.394531 40.148438 2.601562 82.300782 31.726562 111.488282zm12.066407-12.066407c-22.671876-22.710937-33.355469-54.753906-28.851563-86.527343 5.707031 1.988281 11.308594 4.265624 16.785156 6.828124l-2.332031 11.65625c-.925781 4.621094 2.070312 9.117188 6.691406 10.042969.5625.109375 1.132813.164063 1.707032.160157 4.050781 0 7.542968-2.855469 8.355468-6.824219l1.355469-6.777344c3.53125 2.082031 7.015625 4.34375 10.480469 6.71875l-3.519532 6.289063c-1.101562 1.972656-1.378906 4.308593-.761718 6.484374.617187 2.179688 2.074218 4.023438 4.050781 5.128907 1.972656 1.101562 4.308594 1.378906 6.484375.761719 2.179688-.617188 4.023438-2.074219 5.128906-4.046876l2.40625-4.3125c3.097656 2.5625 6.167969 5.316407 9.242188 8.210938l-5.523438 5.511719c-2.21875 2.144531-3.105468 5.316406-2.328125 8.300781.78125 2.980469 3.113281 5.3125 6.097657 6.09375 2.980468.78125 6.15625-.109375 8.296874-2.328125l5.28125-5.28125c3.652344 4.113281 7.144532 8.386719 10.4375 12.800781l-2.933593 1.476563c-3.539063 1.769531-5.394531 5.742187-4.484375 9.589843.914062 3.851563 4.351562 6.570313 8.304687 6.570313 1.320313.003906 2.625-.304687 3.808594-.894531l5.160156-2.5625c2.03125 3.210937 4.011719 6.460937 5.898438 9.824218l-4.480469.894532c-4.121094 1.015625-6.871094 4.902344-6.453125 9.121094.414063 4.222656 3.871094 7.5 8.109375 7.691406.570312 0 1.144531-.054688 1.707031-.164063l9.238281-1.851562c1.519532 3.234375 3.023438 6.597656 4.472657 10.09375-32.171875 4.96875-64.789063-5.683594-87.824219-28.6875zm144.808593-144.808593c22.984375 23.019531 33.636719 55.605468 28.691407 87.753906-3.492188-1.441406-6.828126-2.941406-10.097657-4.460938l1.851563-9.191406c.851562-4.585938-2.140625-9.003906-6.71875-9.921875-4.574219-.914063-9.035156 2.015625-10.015625 6.578125l-.894531 4.480469c-3.351563-1.878907-6.605469-3.859375-9.820313-5.898438l2.558594-5.160156c1.390625-2.730469 1.210937-6-.472657-8.558594-1.679687-2.5625-4.605468-4.027343-7.664062-3.832031-3.058594.191406-5.78125 2.007812-7.128906 4.761719l-1.484375 2.898437c-4.386719-3.292968-8.664063-6.773437-12.800781-10.425781l5.28125-5.292969c3.234374-3.347656 3.1875-8.667968-.101563-11.960937-3.292969-3.292969-8.617187-3.335938-11.964844-.105469l-5.511719 5.523438c-2.890624-3.074219-5.621093-6.148438-8.191406-9.234376l4.265625-2.421874c2.660157-1.496094 4.320313-4.292969 4.355469-7.34375.035156-3.046876-1.558594-5.882813-4.183594-7.441407-2.621094-1.554687-5.875-1.589843-8.535156-.097656l-6.261719 3.523437c-2.371093-3.464843-4.632812-6.945312-6.726562-10.496093l6.777343-1.355469c3.027344-.5625 5.515626-2.707031 6.515626-5.617188 1-2.910156.355468-6.132812-1.683594-8.4375-2.042969-2.300781-5.167969-3.324218-8.175782-2.679687l-11.554687 2.328125c-2.566406-5.472656-4.84375-11.074219-6.828125-16.785156 31.792969-4.703125 63.925781 6.015625 86.527344 28.863281zm-144.808593 0c11.613281-11.617188 25.871093-20.246094 41.546874-25.148438 1.894532 5.632812 4.027344 11.136719 6.390626 16.511719l-1.347657.265625c-4.316406.851562-7.277343 4.847656-6.835937 9.226562s4.144531 7.703125 8.542968 7.675782c.574219 0 1.144532-.058594 1.707032-.167969l5.800781-1.164063c2.847656 5.203125 5.976563 10.320313 9.386719 15.363282l-6.339844 3.558593c-2.65625 1.492188-4.316406 4.289063-4.351562 7.339844-.035157 3.050781 1.558593 5.886719 4.179687 7.441406 2.625 1.554688 5.878906 1.59375 8.535156.097657l8.140625-4.574219c3.414063 4.296875 7.148438 8.5625 11.207032 12.800781l-6.554688 6.554688c-2.277344 2.125-3.214844 5.320312-2.445312 8.335937.765624 3.019531 3.113281 5.378906 6.128906 6.160156 3.011718.78125 6.210937-.140625 8.347656-2.40625l6.777344-6.78125c5.445312 4.910157 11.144531 9.539063 17.066406 13.867188l-2.851562 5.691406c-1.390626 2.730469-1.210938 5.996094.472656 8.558594 1.679687 2.558593 4.605468 4.023437 7.664062 3.832031 3.058594-.195312 5.78125-2.011719 7.128906-4.761719l1.816407-3.628906c4.550781 2.84375 9.21875 5.527344 13.996093 8.046875l-1.636718 8.191406c-.445313 2.226563.015625 4.539063 1.28125 6.425782 1.265625 1.882812 3.230468 3.1875 5.457031 3.621093.5625.109375 1.136719.167969 1.707031.167969 4.058594.003906 7.550782-2.851562 8.363282-6.824219l.742187-3.703125c3.046875 1.363282 6.28125 2.703125 9.542969 4.019532-10.03125 30.769531-34.160156 54.898437-64.933594 64.929687-1.3125-3.269531-2.652344-6.496094-4.019531-9.542969l3.707031-.742187c2.996094-.589844 5.445312-2.738281 6.425781-5.632813.980469-2.890625.339844-6.085937-1.679687-8.378906-2.019532-2.292969-5.109375-3.328125-8.101563-2.722656l-8.191406 1.640625c-2.542969-4.796875-5.226563-9.460938-8.046875-13.996094l3.625-1.816406c2.753906-1.347657 4.570312-4.070313 4.761719-7.128907.191406-3.058593-1.269531-5.984374-3.832031-7.667968-2.558594-1.679688-5.828126-1.859375-8.558594-.46875l-5.75 2.847656c-4.332032-5.914062-8.960938-11.613281-13.867188-17.066406l6.828125-6.773438c3.234375-3.347656 3.1875-8.671875-.105469-11.964844-3.292968-3.289062-8.613281-3.335937-11.960937-.101562l-6.554687 6.554688c-4.273438-4.046876-8.5625-7.792969-12.867188-11.238282l4.429688-7.9375c1.539062-2.664062 1.523437-5.953125-.039063-8.605468-1.566406-2.652344-4.4375-4.253907-7.515625-4.195313s-5.886719 1.769531-7.347656 4.480469l-3.410156 6.09375c-5.054688-3.414063-10.160157-6.542969-15.320313-9.386719l1.160156-5.804687c.609375-2.992188-.425781-6.082032-2.71875-8.101563s-5.488281-2.660156-8.378906-1.679687c-2.894531.980468-5.042969 3.433593-5.632813 6.429687l-.265624 1.355469c-5.394532-2.390625-10.898438-4.523438-16.511719-6.398438 4.882812-15.691406 13.5-29.957031 25.113281-41.582031zm0 0" fill="#acacac"/></svg>
