<?xml version="1.0" encoding="iso-8859-1"?>
<!-- Generator: Adobe Illustrator 19.0.0, SVG Export Plug-In . SVG Version: 6.00 Build 0)  -->
<svg xmlns="http://www.w3.org/2000/svg" xmlns:xlink="http://www.w3.org/1999/xlink" version="1.1" id="Capa_1" x="0px" y="0px" viewBox="0 0 64 64" style="enable-background:new 0 0 64 64;" xml:space="preserve" width="512px" height="512px">
<g id="Baseball-bat">
	<path d="M62.479,6.935l-5.399-5.4c-1.023-1.024-2.435-1.576-3.886-1.526c-1.446,0.055-2.816,0.715-3.759,1.812   c-8.443,9.811-31.412,38.536-32.453,39.838L5.92,52.723l-1.261-1.261c-0.391-0.391-1.024-0.391-1.414,0l-2.952,2.952   C0.105,54.602,0,54.856,0,55.121c0,0.265,0.105,0.52,0.293,0.707l7.872,7.873c0.188,0.188,0.441,0.293,0.707,0.293   c0.266,0,0.519-0.105,0.707-0.293l2.953-2.953c0.188-0.188,0.293-0.442,0.293-0.707c0-0.265-0.106-0.52-0.293-0.707l-1.261-1.261   l11.063-11.063c1.305-1.043,30.068-24.045,39.861-32.471c1.092-0.939,1.748-2.302,1.801-3.741   C64.051,9.36,63.498,7.951,62.479,6.935z M9.15,58.78l1.261,1.261L8.872,61.58l-6.458-6.459l1.538-1.538l1.261,1.261   c0.375,0.375,1.039,0.375,1.414,0l10.174-10.176c0.049,0.122,0.122,0.236,0.22,0.335l2.246,2.245L9.15,57.366   C8.76,57.757,8.76,58.39,9.15,58.78z M60.891,13.024c-9.943,8.555-39.551,32.221-39.849,32.459   c-0.029,0.023-0.057,0.048-0.083,0.074l-0.277,0.277l-2.247-2.245c-0.099-0.098-0.213-0.171-0.335-0.22l0.335-0.335   c0.026-0.026,0.051-0.054,0.074-0.083c0.237-0.297,23.869-29.863,32.442-39.826c0.581-0.676,1.426-1.083,2.318-1.117   c0.903-0.034,1.764,0.309,2.395,0.941l5.401,5.4c0.625,0.625,0.965,1.49,0.932,2.376C61.965,11.609,61.562,12.447,60.891,13.024z" fill="#acacac"/>
	<path d="M12.61,20.354c5.539,0,10.046-4.507,10.046-10.046c0-5.54-4.507-10.046-10.046-10.046c-5.54,0-10.047,4.507-10.047,10.046   C2.563,15.848,7.07,20.354,12.61,20.354z M20.656,10.308c0,1.986-0.726,3.802-1.923,5.207c-2.248-3.293-2.238-6.703,0.03-10.38   C19.943,6.535,20.656,8.339,20.656,10.308z M17.272,3.762c-2.956,4.574-2.964,8.979-0.023,13.109   c-1.313,0.93-2.911,1.483-4.639,1.483c-1.673,0-3.227-0.514-4.516-1.391c3.03-4.186,3.024-8.655-0.018-13.297   c1.292-0.885,2.853-1.405,4.534-1.405C14.349,2.262,15.955,2.822,17.272,3.762z M6.567,5.013c2.372,3.767,2.38,7.253,0.025,10.619   c-1.258-1.42-2.029-3.281-2.029-5.323C4.563,8.28,5.324,6.429,6.567,5.013z" fill="#acacac"/>
</g>
<g>
</g>
<g>
</g>
<g>
</g>
<g>
</g>
<g>
</g>
<g>
</g>
<g>
</g>
<g>
</g>
<g>
</g>
<g>
</g>
<g>
</g>
<g>
</g>
<g>
</g>
<g>
</g>
<g>
</g>
</svg>
