<?xml version="1.0"?>
<svg xmlns="http://www.w3.org/2000/svg" height="512px" viewBox="0 0 480.40335 480" width="512px"><path d="m474.996094 189.863281c-24.34375-113.125-125.886719-192.816406-241.554688-189.566406-115.667968 3.246094-212.578125 88.511719-230.53125 202.824219s48.152344 225.179687 157.257813 263.726562c109.105469 38.550782 230.1875-6.171875 288.035156-106.390625 3.734375-6.464843 7.144531-13.058593 10.230469-19.777343 21.707031-47.152344 27.523437-100.074219 16.578125-150.816407zm-11.433594 69.128907c-.070312.886718-.152344 1.773437-.230469 2.664062-.535156 5.59375-1.277343 11.160156-2.226562 16.695312-.152344.871094-.3125 1.742188-.472657 2.625-1.023437 5.550782-2.25 11.0625-3.6875 16.535157-.207031.800781-.4375 1.601562-.65625 2.398437-1.527343 5.539063-3.238281 11.035156-5.199218 16.457032-.222656.632812-.480469 1.265624-.710938 1.894531-2.066406 5.5625-4.320312 11.066406-6.832031 16.472656-.175781.386719-.375.753906-.550781 1.136719-1.53125 3.199218-3.289063 6.398437-4.96875 9.542968l-89.464844-51.71875c26.273438-42.175781 65.855469-74.394531 112.488281-91.558593l.078125.398437c1.007813 5.878906 1.746094 11.792969 2.28125 17.695313.0625.695312.144532 1.386719.199219 2.074219.472656 5.742187.6875 11.496093.710937 17.238281v2.503906c-.023437 5.65625-.292968 11.296875-.757812 16.945313zm-44.121094 115.679687c-2.71875 3.632813-5.421875 7.261719-8.34375 10.710937-1.695312 2-3.535156 3.847657-5.296875 5.785157-2.726562 3-5.429687 6.015625-8.308593 8.855469-2.011719 1.976562-4.136719 3.808593-6.21875 5.710937-2.824219 2.585937-5.597657 5.175781-8.589844 7.617187-2.265625 1.863282-4.648438 3.601563-6.984375 5.375-2.945313 2.242188-5.890625 4.480469-8.9375 6.570313-2.496094 1.703125-5.078125 3.285156-7.648438 4.894531-3.070312 1.921875-6.152343 3.832032-9.320312 5.601563-2.6875 1.503906-5.4375 2.894531-8.191407 4.292969-3.199218 1.601562-6.398437 3.203124-9.734374 4.707031-2.839844 1.269531-5.730469 2.398437-8.632813 3.597656-1.894531.761719-3.832031 1.449219-5.753906 2.152344-8.394531-48.902344-.277344-99.210938 23.082031-142.992188l89.441406 51.640625c-2.160156 3.457032-4.257812 6.976563-6.601562 10.304688-1.25 1.792968-2.65625 3.429687-3.960938 5.175781zm38.234375-188.28125c-51.070312 18.199219-94.457031 53.179687-123.074219 99.226563l-83.335937-48.089844 107.898437-186.871094c49.128907 30.832031 84.425782 79.46875 98.511719 135.734375zm-112.402343-143.695313-107.863282 186.824219-83.296875-48.089843c25.554688-47.789063 34.152344-102.828126 24.386719-156.132813 55.734375-16.152344 115.574219-9.910156 166.773438 17.398437zm-325.648438 236.082032-.078125-.410156c-1.007813-5.871094-1.746094-11.769532-2.28125-17.664063-.0625-.703125-.144531-1.40625-.199219-2.113281-.472656-5.742188-.6875-11.488282-.710937-17.222656 0-.839844 0-1.671876 0-2.511719 0-5.648438.3125-11.289063.796875-16.902344.074218-.898437.152344-1.792969.234375-2.691406.53125-5.582031 1.273437-11.144531 2.222656-16.6875.15625-.875.316406-1.746094.480469-2.613281 1.019531-5.554688 2.246094-11.066407 3.679687-16.546876.207031-.796874.441407-1.597656.65625-2.351562 1.527344-5.542969 3.199219-11.039062 5.199219-16.472656.226562-.621094.480469-1.246094.714844-1.871094 2.0625-5.597656 4.308594-11.070312 6.824218-16.480469.183594-.382812.382813-.796875.566407-1.152343 1.519531-3.199219 3.28125-6.398438 4.960937-9.527344l89.460938 51.648437c-26.285156 42.183594-65.878906 74.40625-112.527344 91.570313zm31.042969-157.066406c2.167969-3.464844 4.261719-6.984376 6.597656-10.304688 1.28125-1.816406 2.710937-3.496094 4.046875-5.269531 2.691406-3.59375 5.371094-7.203125 8.257812-10.609375 1.71875-2.023438 3.582032-3.902344 5.375-5.863282 2.695313-2.96875 5.375-5.960937 8.234376-8.800781 2.015624-1.992187 4.167968-3.832031 6.253906-5.742187 2.816406-2.578125 5.601562-5.167969 8.5625-7.59375 2.261718-1.863282 4.636718-3.59375 6.972656-5.367188 2.953125-2.242187 5.898438-4.488281 8.960938-6.585937 2.480468-1.695313 5.046874-3.261719 7.601562-4.863281 3.085938-1.933594 6.183594-3.855469 9.375-5.597657 2.664062-1.496093 5.40625-2.882812 8.144531-4.265625 3.199219-1.640625 6.464844-3.238281 9.765625-4.71875 2.84375-1.273437 5.738282-2.449218 8.640625-3.609375 1.898438-.753906 3.816407-1.441406 5.738281-2.144531 8.394532 48.914062.273438 99.226562-23.082031 143.015625zm-27.671875 172.800781c51.078125-18.1875 94.480468-53.160157 123.117187-99.199219l83.296875 48.09375-107.894531 186.855469c-49.128906-30.835938-84.429687-79.476563-98.519531-135.742188zm112.40625 143.75 107.894531-186.878907 83.304687 48.089844c-25.570312 47.820313-34.164062 102.902344-24.367187 156.238282-55.777344 15.933593-115.558594 9.683593-166.832031-17.449219zm0 0" fill="#acacac"/></svg>
