<?xml version="1.0"?>
<svg xmlns="http://www.w3.org/2000/svg" height="512px" viewBox="0 1 511.99973 511" width="512px"><path d="m511.734375 489.03125c-1.085937-3.996094-5.203125-6.351562-9.203125-5.269531l-17.621094 4.789062c-21.839844 5.9375-44.390625 8.949219-67.023437 8.949219h-64.28125c1.433593-2.960938 2.242187-6.285156 2.242187-9.792969 0-12.402343-10.09375-22.5-22.5-22.5h-8.808594l-18.054687-125.804687c-.21875-1.550782-.613281-3.113282-1.1875-4.679688l-12.347656-33.167968c-1.445313-3.882813-5.769531-5.859376-9.644531-4.410157-3.882813 1.441407-5.859376 5.761719-4.414063 9.644531l12.335937 33.128907c.195313.539062.332032 1.070312.40625 1.597656l18.980469 132.257813c.53125 3.695312 3.691407 6.4375 7.421875 6.4375h15.3125c4.136719 0 7.5 3.363281 7.5 7.5 0 4.136718-3.363281 7.5-7.5 7.5h-28.308594c-3.707031 0-6.898437-2.769532-7.425781-6.4375l-20.601562-143.539063c-.074219-.53125-.207031-1.050781-.394531-1.550781l-40.082032-107.664063h16.011719l15.179687 40.777344c1.449219 3.890625 5.769532 5.855469 9.644532 4.410156 3.882812-1.441406 5.859375-5.761719 4.414062-9.644531l-16.484375-44.285156v-101.605469l33.347657 21.902344c8.648437 5.679687 20.160156 4.769531 27.804687-2.457031l59-55.765626c5.496094-5.195312 7.886719-12.5625 6.789063-19.78125h68.085937c4.144531 0 7.5-3.359374 7.5-7.5 0-4.144531-3.355469-7.5-7.5-7.5h-77.417969c-7.6875-5.386718-18.070312-5.4375-25.820312 0h-103.554688c5.105469-5.742187 8.207032-13.300781 8.207032-21.570312 0-17.921875-14.578126-32.5-32.5-32.5-17.917969 0-32.5 14.578125-32.5 32.5 0 9.527344 4.121093 18.105469 10.671874 24.058594-10.292968 6.691406-17.113281 18.292968-17.113281 31.460937v7.8125c0 4.144531 3.355469 7.5 7.5 7.5 4.140625 0 7.5-3.355469 7.5-7.5v-7.8125c0-9.691406 6.15625-17.96875 14.765625-21.128906-.277344.367187-.542968.746094-.796875 1.132813-6.8125 10.371093-3.917969 24.347656 6.453125 31.160156l24.574219 16.136718v105.199219h-22.175781c-.085938 0-.167969 0-.253906 0h-2.011719c-.070313 0-.144531 0-.21875 0h-20.339844v-92.6875c0-4.144531-3.355469-7.5-7.5-7.5-4.140625 0-7.5 3.355469-7.5 7.5v96.765625c0 .394532.023437.78125.0625 1.164063l3.183594 113.550781-18.144531 71.957031c-1.011719 4.015625 1.421874 8.09375 5.4375 9.105469.617187.15625 1.230468.230469 1.839843.230469 3.355469 0 6.410157-2.269531 7.265625-5.667969l18.398438-72.964844c.167968-.667968.246094-1.355468.226562-2.042968l-2.925781-104.410157h14.886719l.128906.34375 2.976562 105.621094c.023438.699219-.050781 1.394531-.226562 2.089844l-31.972656 126.800781c-.5625 2.242188-.0625 4.621094 1.355468 6.441406 1.421876 1.824219 3.605469 2.890625 5.917969 2.890625h9.050781c4.136719 0 7.5 3.367188 7.5 7.5 0 4.136719-3.363281 7.5-7.5 7.5h-28.300781c-2.328125 0-4.484375-1.050781-5.925781-2.902343-1.40625-1.796876-1.914062-4.199219-1.351562-6.421876l9.9375-39.414062c1.011718-4.019531-1.421876-8.097656-5.4375-9.109375-4.019532-1.007813-8.09375 1.425781-9.105469 5.441406l-9.9375 39.414063c-1.296875 5.132812-.695313 10.582031 1.566406 15.285156h-151.703125c-4.144531 0-7.5 3.355469-7.5 7.5 0 4.140625 3.355469 7.5 7.5 7.5h410.386719c23.960937 0 47.835937-3.1875 70.960937-9.472656l17.617188-4.792969c4-1.085937 6.355468-5.207031 5.269531-9.203125zm-201.289063-419.460938h30.425782l-32.394532 30.621094-10.820312-7.109375zm-25.234374 15h-.523438l-22.839844-15h31.523438zm-55.96875-69.070312c9.652343 0 17.5 7.851562 17.5 17.5s-7.847657 17.5-17.5 17.5c-9.648438 0-17.5-7.851562-17.5-17.5s7.851562-17.5 17.5-17.5zm2.5625 61.257812c2.269531-3.449218 6.925781-4.425781 10.386718-2.152343 2.699219 1.777343.015625.007812 35.90625 23.582031.148438.105469.304688.207031.460938.300781l26.640625 17.496094c2.90625 1.910156 6.742187 1.570313 9.269531-.816406.101562-.097657 50.382812-47.617188 50.503906-47.734375 2.652344-2.394532 6.929688-2.816406 10.269532.203125 3.054687 2.984375 3 7.890625-.089844 10.8125l-59 55.769531c-2.535156 2.394531-6.375 2.71875-9.269532.816406l-44.734374-29.378906c-.15625-.109375-.316407-.214844-.480469-.3125l-27.710938-18.199219c-3.457031-2.269531-4.421875-6.929687-2.152343-10.386719zm-23.472657 388.457032 29.613281-117.445313c.523438-2.058593.753907-4.183593.679688-6.261719l-1.734375-61.535156 25.386719 68.1875 20.488281 142.742188c.335937 2.339844 1.03125 4.554687 2.027344 6.597656h-56.777344c1.433594-2.960938 2.242187-6.285156 2.242187-9.792969 0-12.214843-9.78125-22.1875-21.925781-22.492187zm0 0" fill="#acacac"/></svg>
