<?xml version="1.0" encoding="iso-8859-1"?>
<!-- Generator: Adobe Illustrator 17.1.0, SVG Export Plug-In . SVG Version: 6.00 Build 0)  -->
<!DOCTYPE svg PUBLIC "-//W3C//DTD SVG 1.1//EN" "http://www.w3.org/Graphics/SVG/1.1/DTD/svg11.dtd">
<svg xmlns="http://www.w3.org/2000/svg" xmlns:xlink="http://www.w3.org/1999/xlink" version="1.1" id="Capa_1" x="0px" y="0px" viewBox="0 0 456.125 456.125" style="enable-background:new 0 0 456.125 456.125;" xml:space="preserve" width="512px" height="512px">
<g>
	<path d="M387.006,125.354c-9.734,0-18.915,4.032-25.477,11h-15.783c-5.522,0-10,4.478-10,10v4h-67.059   c-7.24-16.939-24.642-24.552-38.049-28.936c-9.961-3.257-18.477-4.84-26.036-4.84c-34.623,0-45.493,33.247-58.08,71.745   c-9.728,29.753-12.246,48.888-8.421,63.982c2.386,9.415,7.211,17.054,14.763,23.21c-7.264,25.199-17.926,41.596-32.492,50.003   c-14.846,8.571-34.86,9.342-59.488,2.292c-4.839-1.385-9.957,1.045-11.942,5.672l-14.013,32.669   c-2.177,5.076,0.173,10.955,5.249,13.133c1.285,0.551,2.622,0.813,3.937,0.813c3.878,0,7.569-2.271,9.195-6.061l10.632-24.788   c26.294,6.021,48.61,3.877,66.428-6.408c18.284-10.554,31.549-29.364,40.358-57.304c1.796,0.704,3.641,1.386,5.59,2.023   c6.459,2.111,12.335,3.411,17.81,3.936c4.175,5.074,13.089,17.349,19.482,36.302c11.512,34.126,9.86,72.622-4.908,114.422   c-1.072,3.033-0.619,6.397,1.218,9.039c1.837,2.642,4.833,4.238,8.049,4.291l35.699,0.576c0.055,0.001,0.109,0.001,0.164,0.001   c5.447,0,9.907-4.372,9.996-9.839c0.089-5.521-4.315-10.07-9.838-10.16l-22.179-0.357c15.23-51.617,8.862-90.975,0.335-115.577   c-4.688-13.525-10.475-24.096-15.425-31.641c15.073-6.143,25.432-20.816,34.061-41.205c3.795,0.678,7.712,1.032,11.722,1.032   c4.885,0,9.904-0.509,14.992-1.54l1.58,4.128c1.523,3.982,5.317,6.429,9.341,6.429c1.188,0,2.396-0.214,3.572-0.663l14.735-5.64   c4.729,2.29,9.904,3.483,15.227,3.483c0.001,0,0.001,0,0.002,0c4.276,0,8.482-0.78,12.502-2.319   c18.024-6.897,27.076-27.174,20.178-45.197c-5.149-13.456-18.288-22.497-32.693-22.497c-4.277,0-8.484,0.78-12.505,2.319   c-9.091,3.479-16.224,10.526-19.861,19.379l-14.741,5.642c-2.478,0.948-4.476,2.842-5.558,5.264   c-1.081,2.422-1.155,5.174-0.207,7.65l1.156,3.02c-4.259,0.632-8.368,0.742-12.282,0.375c0.347-1.032,0.692-2.068,1.036-3.119   c7.478-22.873,12.725-40.126,13.112-54.736h63.655v4c0,5.523,4.478,10,10,10h15.782c6.563,6.968,15.743,11,25.478,11   c19.299,0,35-15.701,35-35C422.006,141.055,406.305,125.354,387.006,125.354z M301.172,223.236   c3.099-1.186,5.407-3.831,6.163-7.061c1.139-4.866,4.597-8.835,9.251-10.616c1.73-0.662,3.532-0.998,5.356-0.998   c6.175,0,11.807,3.876,14.015,9.646c2.956,7.725-0.923,16.414-8.648,19.371c-1.729,0.661-3.53,0.997-5.353,0.997h-0.001   c-3.046,0-6.107-0.968-8.62-2.724c-1.703-1.191-3.708-1.804-5.73-1.804c-1.205,0-2.416,0.218-3.573,0.66l-9.85,3.769l-2.859-7.472   L301.172,223.236z M233.817,216.964c-11.831-12.341-14.272-32.207-6.529-53.142c1.916-5.18-0.73-10.932-5.91-12.848   c-5.179-1.917-10.933,0.729-12.848,5.91c-10.463,28.286-6.407,55.92,10.85,73.92c3.733,3.894,7.951,7.145,12.537,9.764   c-10.954,25.412-20.824,31.193-32.344,31.193c-4.852,0-10.425-1.051-17.038-3.213c-4.827-1.578-8.701-3.273-11.831-5.039   c-0.707-0.58-1.498-1.066-2.365-1.44c-7.262-4.77-9.651-9.949-10.849-14.677c-2.752-10.858-0.196-27.653,8.044-52.854   c14.45-44.198,21.725-57.96,39.07-57.96c5.414,0,11.897,1.259,19.821,3.85c20.7,6.768,25.644,14.389,27.107,21.73   c0.02,0.111,0.04,0.223,0.064,0.333c0.078,0.422,0.148,0.843,0.207,1.263c1.725,12.302-3.815,30.605-11.831,55.121   c-0.291,0.889-0.579,1.74-0.867,2.601C237.221,220.15,235.444,218.661,233.817,216.964z M387.006,175.354   c-4.984,0-9.633-2.47-12.435-6.607c-1.86-2.747-4.963-4.393-8.28-4.393h-10.545v-8h10.546c3.318,0,6.42-1.646,8.28-4.393   c2.802-4.138,7.449-6.607,12.434-6.607c8.271,0,15,6.729,15,15C402.006,168.625,395.278,175.354,387.006,175.354z" fill="#acacac"/>
	<path d="M236.909,116.133c32.018,0,58.066-26.053,58.066-58.076C294.975,26.044,268.926,0,236.909,0   c-32.021,0-58.072,26.044-58.072,58.057C178.837,90.08,204.888,116.133,236.909,116.133z M236.909,20   c20.99,0,38.066,17.072,38.066,38.057c0,20.995-17.076,38.076-38.066,38.076c-20.993,0-38.072-17.081-38.072-38.076   C198.837,37.072,215.916,20,236.909,20z" fill="#acacac"/>
</g>
<g>
</g>
<g>
</g>
<g>
</g>
<g>
</g>
<g>
</g>
<g>
</g>
<g>
</g>
<g>
</g>
<g>
</g>
<g>
</g>
<g>
</g>
<g>
</g>
<g>
</g>
<g>
</g>
<g>
</g>
</svg>
