<?xml version="1.0" encoding="iso-8859-1"?>
<!-- Generator: Adobe Illustrator 19.0.0, SVG Export Plug-In . SVG Version: 6.00 Build 0)  -->
<svg xmlns="http://www.w3.org/2000/svg" xmlns:xlink="http://www.w3.org/1999/xlink" version="1.1" id="Capa_1" x="0px" y="0px" viewBox="0 0 63.533 63.533" style="enable-background:new 0 0 63.533 63.533;" xml:space="preserve" width="512px" height="512px">
<g id="Boxer_1_">
	<path id="Boxer" d="M55.01,11.233c-1.055-0.796-2.446-1.054-3.713-0.69l-6.028,1.723c-0.43,0.123-0.726,0.515-0.726,0.961v0.45   H21.17l0.605-2.724c0.245,0.033,0.49,0.051,0.735,0.051c0.953,0,1.893-0.25,2.739-0.739c2.627-1.516,3.53-4.886,2.015-7.513   c-0.733-1.272-1.92-2.182-3.341-2.563c-1.418-0.38-2.902-0.185-4.174,0.549v0c-2.625,1.516-3.528,4.887-2.013,7.512   c0.512,0.887,1.253,1.584,2.131,2.062l-1.849,8.321c-0.05,0.115-0.077,0.236-0.081,0.364l-3.825,17.214   c-0.008,0.038,0.002,0.073-0.002,0.111c-0.004,0.036-0.021,0.068-0.021,0.106v11.366l-7.146,14.29   c-0.247,0.494-0.047,1.095,0.447,1.342c0.144,0.072,0.296,0.105,0.446,0.105c0.367,0,0.72-0.202,0.896-0.553l7.251-14.501   c0.069-0.139,0.105-0.292,0.105-0.447v-8.115l5.192,8.309l-2.822,14.112c-0.108,0.542,0.243,1.068,0.784,1.177   c0.066,0.013,0.132,0.02,0.197,0.02c0.467,0,0.885-0.329,0.979-0.804l2.9-14.501c0.05-0.25,0.003-0.51-0.133-0.726l-7.033-11.254   l2.941-13.235l3.739,12.259c0.097,0.317,0.344,0.566,0.66,0.664c0.098,0.03,0.197,0.044,0.296,0.044   c0.225,0,0.445-0.076,0.625-0.219l6.521-5.216l0.408,0.408c0.192,0.192,0.448,0.293,0.707,0.293c0.166,0,0.333-0.041,0.485-0.126   l5.372-2.985c1.181-0.654,1.997-1.844,2.185-3.182c0.188-1.336-0.27-2.704-1.223-3.659c-0.001-0.001,0-0.002-0.004-0.003   c-0.934-0.933-2.268-1.385-3.581-1.198c-1.311,0.183-2.476,0.982-3.113,2.136l-3.046,5.483c-0.217,0.39-0.148,0.877,0.167,1.192   l0.219,0.219l-5.196,4.157l-4.34-14.23l0.756-3.403c0.053,0.009,0.101,0.032,0.157,0.032h23.653v0.45   c0,0.446,0.296,0.839,0.726,0.962l5.912,1.69c0.387,0.11,0.783,0.164,1.179,0.164c0.934,0,1.858-0.301,2.612-0.871   c1.079-0.812,1.723-2.104,1.723-3.454v-0.004C56.695,13.291,56.065,12.027,55.01,11.233z M33.921,23.197   c0.336-0.608,0.95-1.029,1.642-1.125c0.681-0.095,1.385,0.135,1.876,0.619c0.01,0.01,0.02,0.02,0.03,0.03   c0.503,0.513,0.744,1.242,0.644,1.954c-0.101,0.72-0.539,1.359-1.175,1.711l-4.713,2.619l-0.351-0.351   c-0.02-0.032-0.027-0.069-0.051-0.099c-0.084-0.105-0.186-0.188-0.297-0.249l-0.285-0.284L33.921,23.197z M20.749,2.471   c0.809-0.468,1.751-0.592,2.657-0.349c0.903,0.242,1.658,0.821,2.125,1.63c0.965,1.671,0.39,3.816-1.282,4.781   c-0.809,0.467-1.755,0.589-2.655,0.349c-0.903-0.242-1.658-0.821-2.125-1.63C18.504,5.581,19.079,3.436,20.749,2.471z    M54.695,14.617c0,0.726-0.346,1.42-0.928,1.858c-0.578,0.437-1.344,0.577-2.037,0.38l-5.187-1.483v-1.392l5.303-1.516   c0.673-0.192,1.404-0.054,1.961,0.365c0.556,0.418,0.888,1.085,0.888,1.782V14.617z" fill="#acacac"/>
</g>
<g>
</g>
<g>
</g>
<g>
</g>
<g>
</g>
<g>
</g>
<g>
</g>
<g>
</g>
<g>
</g>
<g>
</g>
<g>
</g>
<g>
</g>
<g>
</g>
<g>
</g>
<g>
</g>
<g>
</g>
</svg>
