<?xml version="1.0" encoding="iso-8859-1"?>
<!-- Generator: Adobe Illustrator 16.0.0, SVG Export Plug-In . SVG Version: 6.00 Build 0)  -->
<!DOCTYPE svg PUBLIC "-//W3C//DTD SVG 1.1//EN" "http://www.w3.org/Graphics/SVG/1.1/DTD/svg11.dtd">
<svg xmlns="http://www.w3.org/2000/svg" xmlns:xlink="http://www.w3.org/1999/xlink" version="1.1" id="Capa_1" x="0px" y="0px" width="512px" height="512px" viewBox="0 0 155.509 155.509" style="enable-background:new 0 0 155.509 155.509;" xml:space="preserve">
<g>
	<g>
		<path d="M119.967,98.406c4.979-6.312,4.563-14.396,4.533-18.725l-1.227-36.422c-0.037-1.098-0.592-2.112-1.489-2.744    c-0.897-0.632-2.045-0.805-3.09-0.467c-0.215,0.069-21.187,6.585-43.419-4.583c0.453-1.242,0.713-2.577,0.713-3.977    c0-6.421-5.204-11.625-11.625-11.625s-11.625,5.204-11.625,11.625c0,6.421,5.204,11.625,11.625,11.625    c2.426,0,4.677-0.745,6.54-2.016c19.177,10.139,37.372,8.334,45.521,6.71l1.088,32.33c0.007,0.163,0.771,8.788-3.221,14.169    c-3.369,4.545-9.277,7.754-17.344,8.869c-11.75,1.625-31.667,9.167-38.342,48.309c-0.325,1.903,1.002,3.768,2.922,3.994    c2.18,0.262,3.701-1.197,3.996-2.922c6.257-36.547,25.507-41.214,32.59-42.214C108.113,109.148,115.235,104.4,119.967,98.406z     M64.488,35.866c-2.485,0-4.5-2.015-4.5-4.5c0-2.485,2.015-4.5,4.5-4.5c2.485,0,4.5,2.015,4.5,4.5    C68.988,33.851,66.974,35.866,64.488,35.866z" fill="#acacac"/>
		<path d="M91.174,65.474l0.861,27.989c0.059,1.896,1.613,3.393,3.496,3.393c0.036,0,0.073,0,0.109-0.002    c1.933-0.06,3.449-1.674,3.391-3.604l-0.957-31.084c-0.057-1.812-1.488-3.283-3.3-3.387c-0.328-0.019-31.409-2.034-48.608-20.683    c1.901-2.069,3.072-4.822,3.072-7.854c0-6.421-5.204-11.625-11.625-11.625s-11.625,5.204-11.625,11.625    c0,6.421,5.204,11.625,11.625,11.625c0.794,0,1.568-0.081,2.318-0.232C55.71,59.891,82.019,64.428,91.174,65.474z M33.238,30.116    c0-2.485,2.015-4.5,4.5-4.5c2.485,0,4.5,2.015,4.5,4.5c0,2.485-2.015,4.5-4.5,4.5C35.253,34.616,33.238,32.601,33.238,30.116z" fill="#acacac"/>
		<path d="M127.78,147.639c-0.198-0.111-19.942-11.427-23.606-31.574c-0.344-1.901-2.164-3.168-4.067-2.817    c-1.901,0.347-3.163,2.168-2.817,4.069c4.245,23.351,26.133,35.9,27.062,36.424c0.543,0.307,3.098,2.104,4.768-1.334    C129.959,150.668,129.465,148.587,127.78,147.639z" fill="#acacac"/>
		<path d="M101.088,33.167c9.145,0,16.582-7.438,16.582-16.582C117.67,7.439,110.232,0,101.088,0    c-9.146,0-16.586,7.438-16.586,16.585C84.502,25.729,91.942,33.167,101.088,33.167z M101.088,7.181c5.185,0,9.4,4.219,9.4,9.404    s-4.218,9.401-9.4,9.401c-5.188,0-9.403-4.217-9.403-9.401C91.683,11.4,95.9,7.181,101.088,7.181z" fill="#acacac"/>
	</g>
</g>
<g>
</g>
<g>
</g>
<g>
</g>
<g>
</g>
<g>
</g>
<g>
</g>
<g>
</g>
<g>
</g>
<g>
</g>
<g>
</g>
<g>
</g>
<g>
</g>
<g>
</g>
<g>
</g>
<g>
</g>
</svg>
