<?xml version="1.0" encoding="iso-8859-1"?>
<!-- Generator: Adobe Illustrator 18.0.0, SVG Export Plug-In . SVG Version: 6.00 Build 0)  -->
<!DOCTYPE svg PUBLIC "-//W3C//DTD SVG 1.1//EN" "http://www.w3.org/Graphics/SVG/1.1/DTD/svg11.dtd">
<svg xmlns="http://www.w3.org/2000/svg" xmlns:xlink="http://www.w3.org/1999/xlink" version="1.1" id="Capa_1" x="0px" y="0px" viewBox="0 0 489.143 489.143" style="enable-background:new 0 0 489.143 489.143;" xml:space="preserve" width="512px" height="512px">
<g>
	<path d="M395.259,290.573c-50.418,0-91.436,41.018-91.436,91.436c0,50.418,41.018,91.436,91.436,91.436   s91.435-41.018,91.435-91.436C486.694,331.591,445.677,290.573,395.259,290.573z M395.259,299.073   c33.914,0,63.122,20.471,75.961,49.697c-0.005,0.085-0.025,0.166-0.025,0.252c0,17.557-6.005,33.727-16.047,46.603   c-0.396-1.937-2.11-3.394-4.164-3.394c-2.347,0-4.25,1.902-4.25,4.25v8.303c-2.431,2.246-5.014,4.327-7.722,6.244v-2.381   c0-2.348-1.903-4.25-4.25-4.25c-2.347,0-4.25,1.902-4.25,4.25v7.601c-2.495,1.314-5.073,2.488-7.722,3.523v-4.039   c0-2.348-1.903-4.25-4.25-4.25c-2.347,0-4.25,1.902-4.25,4.25v6.811c-2.526,0.654-5.103,1.178-7.723,1.57v-5.215   c0-2.348-1.903-4.25-4.25-4.25s-4.25,1.902-4.25,4.25v5.989c-0.934,0.034-1.867,0.071-2.809,0.071   c-1.652,0-3.288-0.072-4.914-0.176v-5.885c0-2.348-1.903-4.25-4.25-4.25c-2.347,0-4.25,1.902-4.25,4.25v4.85   c-2.623-0.469-5.199-1.072-7.723-1.805v-7.545c0-2.348-1.903-4.25-4.25-4.25c-2.347,0-4.25,1.902-4.25,4.25v4.535   c-2.658-1.131-5.229-2.424-7.722-3.84v-7.486c0-2.348-1.903-4.25-4.25-4.25s-4.25,1.902-4.25,4.25v1.89   c-2.721-2.069-5.305-4.31-7.722-6.72v-5.221c0-2.348-1.903-4.25-4.25-4.25c-1.145,0-2.179,0.457-2.943,1.193   c-9.517-12.686-15.162-28.434-15.162-45.477c0-0.086-0.021-0.167-0.025-0.252C332.136,319.544,361.344,299.073,395.259,299.073z    M395.259,464.944c-45.731,0-82.936-37.205-82.936-82.936c0-4.324,0.335-8.57,0.976-12.718   c3.46,13.988,10.411,26.611,19.879,36.888v7.627c0,2.348,1.903,4.25,4.25,4.25c2.213,0,4.009-1.697,4.21-3.857   c2.47,2.036,5.069,3.916,7.762,5.665v3.993c0,2.348,1.903,4.25,4.25,4.25c2.067,0,3.786-1.477,4.167-3.432   c2.533,1.258,5.135,2.396,7.804,3.4v2.572c0,2.348,1.903,4.25,4.25,4.25c2.304,0,4.168-1.836,4.237-4.123   c2.533,0.656,5.116,1.187,7.735,1.606v2.767c0,2.348,1.903,4.25,4.25,4.25c2.347,0,4.25-1.902,4.25-4.25v-1.844   c1.628,0.094,3.264,0.154,4.914,0.154c0.942,0,1.874-0.041,2.809-0.071v1.761c0,2.348,1.903,4.25,4.25,4.25s4.25-1.902,4.25-4.25   v-2.469c2.614-0.352,5.189-0.824,7.723-1.41v0.713c0,2.348,1.903,4.25,4.25,4.25c2.347,0,4.25-1.902,4.25-4.25v-3.156   c2.663-0.922,5.265-1.971,7.801-3.144c0.369,1.972,2.092,3.466,4.171,3.466c2.347,0,4.25-1.902,4.25-4.25v-3.683   c2.981-1.813,5.826-3.825,8.551-5.981c0.773,1.055,2.012,1.748,3.421,1.748c2.347,0,4.25-1.902,4.25-4.25v-4.344   c10.545-10.652,18.272-24.09,21.985-39.096c0.641,4.146,0.976,8.393,0.976,12.717C478.194,427.739,440.99,464.944,395.259,464.944z   " fill="#acacac"/>
	<path d="M489.143,74.13c0-6.224-2.424-12.075-6.824-16.476l-50.841-50.84c-9.084-9.084-23.867-9.086-32.952,0L290.187,115.152   V47.128c0-8.531-5.847-15.473-13.033-15.473h-41.933c-7.187,0-13.033,6.941-13.033,15.473v136.023l-11.606,11.607V47.128   c0-8.531-5.847-15.473-13.033-15.473h-41.933c-7.186,0-13.033,6.941-13.033,15.473v214.721c0,0.588,0.12,1.148,0.335,1.657   c-5.257,8.932-4.083,20.63,3.577,28.289l7.213,7.214l-22.731,22.73V47.128c0-8.531-5.847-15.473-13.033-15.473H76.012   c-7.187,0-13.033,6.941-13.033,15.473v341.988c0,0.193,0.032,0.378,0.057,0.564l-30.574,30.574   c-3.547-2.934-7.961-4.531-12.622-4.531c-5.302,0-10.287,2.064-14.036,5.814c-7.739,7.738-7.739,20.331,0,28.07l33.72,33.722   c3.75,3.748,8.734,5.813,14.036,5.813c5.302,0,10.287-2.065,14.036-5.814s5.813-8.733,5.813-14.035   c0-4.661-1.599-9.075-4.532-12.622l121.246-121.247l7.212,7.213c9.084,9.084,23.867,9.086,32.952,0L482.318,90.605   C486.719,86.205,489.143,80.353,489.143,74.13z M230.688,47.128c0-4.109,2.389-6.973,4.533-6.973h41.933   c2.144,0,4.533,2.863,4.533,6.973v76.524l-50.999,50.999V47.128z M155.617,40.155h41.933c2.144,0,4.533,2.863,4.533,6.973v156.13   l-50.999,50.999V47.128C151.083,43.018,153.473,40.155,155.617,40.155z M71.478,47.128c0-4.109,2.389-6.973,4.533-6.973h41.933   c2.144,0,4.533,2.863,4.533,6.973v283.111l-50.999,50.998V47.128z M61.585,477.318c-2.144,2.144-4.993,3.324-8.025,3.324   c-3.031,0-5.882-1.181-8.025-3.324l-33.72-33.721c-2.143-2.143-3.324-4.994-3.325-8.025c0-3.031,1.181-5.882,3.324-8.025   c2.144-2.143,4.994-3.323,8.025-3.323c3.032,0,5.882,1.18,8.025,3.323l33.72,33.721c2.143,2.144,3.324,4.994,3.324,8.025   C64.91,472.324,63.729,475.175,61.585,477.318z M476.307,84.596L224.278,336.627c-5.771,5.77-15.161,5.77-20.931,0l-10.218-10.219   c-0.797-0.797-1.878-1.245-3.005-1.245c-1.127,0-2.208,0.448-3.005,1.245L62.933,450.595l-24.396-24.396l7.001-7.001l12.375,12.374   c0.83,0.83,1.917,1.245,3.005,1.245c1.088,0,2.175-0.415,3.005-1.245c1.66-1.659,1.66-4.35,0-6.01l-12.375-12.374l111.176-111.175   c1.66-1.659,1.66-4.35,0-6.01l-10.218-10.219c-5.77-5.771-5.77-15.16,0-20.932L404.536,12.824c5.771-5.769,15.161-5.77,20.931,0   l50.841,50.84c2.795,2.796,4.335,6.513,4.335,10.466C480.643,78.083,479.103,81.8,476.307,84.596z" fill="#acacac"/>
	<path d="M413.369,32.9L243.666,202.603c-1.66,1.659-1.66,4.351,0,6.01c0.83,0.83,1.917,1.245,3.005,1.245s2.175-0.415,3.005-1.245   L419.38,38.91c1.66-1.659,1.66-4.351,0-6.01C417.72,31.24,415.03,31.24,413.369,32.9z" fill="#acacac"/>
	<path d="M84.009,59.352c-2.347,0-4.25,1.902-4.25,4.25v231.221c0,2.348,1.903,4.25,4.25,4.25s4.25-1.902,4.25-4.25V63.602   C88.259,61.255,86.356,59.352,84.009,59.352z" fill="#acacac"/>
</g>
<g>
</g>
<g>
</g>
<g>
</g>
<g>
</g>
<g>
</g>
<g>
</g>
<g>
</g>
<g>
</g>
<g>
</g>
<g>
</g>
<g>
</g>
<g>
</g>
<g>
</g>
<g>
</g>
<g>
</g>
</svg>
