<?xml version="1.0" encoding="iso-8859-1"?>
<!-- Generator: Adobe Illustrator 16.0.0, SVG Export Plug-In . SVG Version: 6.00 Build 0)  -->
<!DOCTYPE svg PUBLIC "-//W3C//DTD SVG 1.1//EN" "http://www.w3.org/Graphics/SVG/1.1/DTD/svg11.dtd">
<svg xmlns="http://www.w3.org/2000/svg" xmlns:xlink="http://www.w3.org/1999/xlink" version="1.1" id="Capa_1" x="0px" y="0px" width="512px" height="512px" viewBox="0 0 612 612" style="enable-background:new 0 0 612 612;" xml:space="preserve">
<g>
	<g>
		<g>
			<path d="M592.855,306c0-79.209-32.114-150.928-84.012-202.845c-51.917-51.896-123.636-84.03-202.845-84.03     s-150.948,32.134-202.845,84.03C51.257,155.051,19.125,226.791,19.125,306s32.114,150.928,84.011,202.845     c51.896,51.896,123.635,84.011,202.844,84.011c79.209,0,150.928-32.113,202.844-84.011     C560.741,456.928,592.855,385.209,592.855,306L592.855,306z M522.371,89.628C577.715,144.991,612,221.491,612,306     s-34.266,161.009-89.629,216.371C467.009,577.734,390.509,612,306,612s-161.028-34.266-216.372-89.629     C34.246,466.988,0,390.509,0,306S34.266,144.991,89.628,89.628C144.99,34.265,221.491,0,306,0     C390.469,0,467.009,34.266,522.371,89.628z" fill="#acacac"/>
			<path d="M346.302,265.698c3.727,3.725,3.727,9.801,0,13.527c-3.726,3.725-9.802,3.725-13.525,0     c-3.666-3.666-7.869-6.435-12.252-8.248c-4.582-1.893-9.523-2.849-14.505-2.849c-9.682,0-19.384,3.706-26.773,11.097     c-3.666,3.666-6.435,7.869-8.248,12.252c-1.893,4.582-2.849,9.542-2.849,14.523c0,9.682,3.706,19.384,11.097,26.775     c3.666,3.665,7.869,6.435,12.232,8.247h0.04l0,0c4.582,1.893,9.523,2.849,14.503,2.849c9.683,0,19.385-3.705,26.774-11.096     c3.727-3.727,9.802-3.727,13.527,0c3.725,3.725,3.725,9.801,0,13.525c-11.117,11.116-25.72,16.694-40.304,16.694     c-7.371,0-14.82-1.454-21.833-4.362v-0.021c-6.773-2.81-13.089-6.934-18.468-12.312c-11.116-11.116-16.694-25.719-16.694-40.302     c0-7.371,1.454-14.822,4.363-21.834c2.789-6.733,6.933-13.069,12.332-18.467c11.117-11.117,25.719-16.695,40.302-16.695     c7.37,0,14.821,1.455,21.835,4.363C334.568,256.155,340.903,260.299,346.302,265.698z" fill="#acacac"/>
			<path d="M391.465,207.008c3.727-3.726,9.802-3.726,13.527,0c3.725,3.725,3.725,9.801,0,13.527l-92.219,92.238     c-3.727,3.726-9.802,3.726-13.527,0c-3.726-3.727-3.726-9.802,0-13.527L391.465,207.008z" fill="#acacac"/>
			<path d="M211.152,296.438c5.279,0,9.563,4.283,9.563,9.563c0,5.28-4.283,9.563-9.563,9.563H51.06     c-5.279,0-9.563-4.283-9.563-9.563c0-5.28,4.283-9.563,9.563-9.563H211.152z" fill="#acacac"/>
			<path d="M405.031,315.562c-5.279,0-9.563-4.282-9.563-9.562c0-5.28,4.283-9.563,9.563-9.563H560.94     c5.278,0,9.562,4.283,9.562,9.563c0,5.28-4.283,9.562-9.562,9.562H405.031z" fill="#acacac"/>
			<path d="M315.562,211.152c0,5.279-4.282,9.563-9.562,9.563c-5.28,0-9.563-4.283-9.563-9.563V51.06     c0-5.279,4.283-9.563,9.563-9.563c5.28,0,9.562,4.283,9.562,9.563V211.152z" fill="#acacac"/>
			<path d="M296.438,405.031c0-5.279,4.283-9.563,9.563-9.563c5.28,0,9.563,4.283,9.563,9.563V560.94     c0,5.278-4.283,9.562-9.563,9.562c-5.28,0-9.563-4.283-9.563-9.562V405.031z" fill="#acacac"/>
			<path d="M436.09,149.374l-10.658,10.658l-0.02,0.02l0.02,0.021l-2.969,2.968l-14.682,14.683v26.496h26.535l28.31-28.289h-16.974     c-5.279,0-9.563-4.283-9.563-9.563v-0.279L436.09,149.374L436.09,149.374z M411.925,146.565l26.496-26.516     c1.753-2.012,4.343-3.307,7.231-3.307c5.278,0,9.562,4.283,9.562,9.563v30.48h30.461v0.04c2.45,0,4.9,0.936,6.773,2.809     c3.705,3.726,3.686,9.782-0.04,13.487l-46.938,46.916c-1.753,2.012-4.343,3.307-7.23,3.307h-39.765h-0.238     c-5.279,0-9.563-4.283-9.563-9.562v-40.023c0-2.451,0.938-4.901,2.81-6.773l17.491-17.492l2.969-2.948L411.925,146.565z" fill="#acacac"/>
			<path d="M420.73,148.577c4.242,3.088,5.18,9.045,2.092,13.288c-3.088,4.243-9.045,5.18-13.288,2.092     c-2.49-1.813-5.279-3.726-8.327-5.678l-0.638-0.438c-2.432-1.554-5.12-3.167-8.01-4.801c-2.907-1.654-5.917-3.248-8.965-4.762     c-3.168-1.574-6.234-2.988-9.184-4.223c-5.2-2.211-10.639-4.184-16.217-5.917c-5.459-1.693-11.037-3.147-16.675-4.283v0.02     l-0.3-0.06c-5.18-0.977-8.565-5.997-7.569-11.176c0.977-5.18,5.997-8.566,11.177-7.57l0.299,0.06v0.02h0.119     c6.314,1.295,12.531,2.889,18.567,4.761c6.035,1.872,12.071,4.084,17.988,6.594c3.605,1.514,7.054,3.088,10.24,4.682     c3.347,1.653,6.693,3.427,9.94,5.279c2.849,1.614,5.856,3.427,9.005,5.458l0.518,0.299     C414.395,144.075,417.503,146.207,420.73,148.577L420.73,148.577z M306,111.164c5.279,0,9.562,4.283,9.562,9.563     s-4.282,9.563-9.562,9.563c-6.235,0-12.212,0.299-17.85,0.856c-5.937,0.598-11.833,1.494-17.571,2.67     c-5.658,1.155-11.276,2.609-16.774,4.323c-5.578,1.733-11.017,3.726-16.216,5.917c-5.18,2.191-10.3,4.662-15.26,7.371     l-0.04,0.021l0.02,0.02c-4.92,2.65-9.782,5.618-14.523,8.826c-4.722,3.167-9.264,6.554-13.547,10.1l-0.478,0.359     c-3.964,3.287-8.009,6.993-12.013,11.017c-4.164,4.164-7.988,8.367-11.375,12.451l-0.02,0.02l0.02,0.02     c-3.526,4.283-6.933,8.825-10.101,13.507c-3.208,4.742-6.176,9.583-8.825,14.503l-0.02,0.02l0.02,0.02     c-2.809,5.18-5.279,10.28-7.391,15.28c-2.211,5.2-4.184,10.638-5.917,16.216c-1.713,5.499-3.147,11.097-4.303,16.734h0.02     l-0.06,0.279c-1.036,5.18-6.056,8.546-11.236,7.511c-5.18-1.036-8.547-6.056-7.511-11.236l0.06-0.279h0.02l0.02-0.06     c1.295-6.315,2.889-12.531,4.761-18.567c1.873-6.036,4.084-12.072,6.594-17.989c2.55-6.036,5.279-11.734,8.148-16.993l0.02,0.02     c3.028-5.598,6.315-11.017,9.782-16.137c3.486-5.16,7.251-10.18,11.236-15.001h-0.02c4.144-5.04,8.347-9.662,12.531-13.866     c4.084-4.084,8.566-8.168,13.467-12.212l0.378-0.339c4.801-3.984,9.842-7.75,15.001-11.216c5.12-3.466,10.559-6.753,16.176-9.802     l0.02,0.02c5.439-2.948,11.117-5.698,16.934-8.148c5.917-2.51,11.953-4.722,17.99-6.594c6.036-1.873,12.252-3.486,18.567-4.761     c6.375-1.295,12.91-2.311,19.523-2.968C292.971,111.503,299.565,111.164,306,111.164L306,111.164z M111.164,306     c0-5.279,4.283-9.563,9.563-9.563c5.28,0,9.563,4.283,9.563,9.563c0,6.235,0.299,12.212,0.856,17.85     c0.598,5.938,1.494,11.834,2.67,17.571c1.155,5.658,2.609,11.276,4.323,16.774c1.733,5.578,3.726,11.017,5.917,16.217     c2.191,5.18,4.662,10.279,7.371,15.279c2.629,4.842,5.598,9.723,8.845,14.543s6.654,9.362,10.101,13.547     c3.367,4.084,7.211,8.268,11.375,12.432l0.498,0.538c3.865,3.845,7.869,7.471,11.934,10.837l0.02,0.021l0.02-0.021     c4.283,3.547,8.826,6.935,13.527,10.102c4.742,3.208,9.603,6.176,14.523,8.824l0.498,0.279c4.821,2.609,9.781,4.98,14.802,7.112     c5.2,2.211,10.618,4.184,16.216,5.917c5.519,1.713,11.117,3.167,16.774,4.322c5.757,1.176,11.634,2.071,17.571,2.67     c5.638,0.558,11.615,0.855,17.85,0.855c5.28,0,9.563,4.283,9.563,9.563c0,5.279-4.283,9.562-9.563,9.562     c-6.435,0-13.029-0.357-19.723-1.016c-6.614-0.657-13.128-1.674-19.523-2.97c-6.315-1.295-12.531-2.889-18.567-4.761     c-6.037-1.873-12.073-4.084-17.99-6.595c-5.678-2.41-11.236-5.06-16.555-7.929l-0.398-0.22     c-5.618-3.049-11.037-6.354-16.176-9.802c-5.14-3.467-10.18-7.23-15.001-11.216l0.02-0.021     c-4.662-3.845-9.104-7.868-13.288-12.031l-0.538-0.498c-4.184-4.185-8.387-8.807-12.551-13.866     c-4.084-4.9-7.869-9.94-11.256-14.941c-3.407-5.04-6.694-10.479-9.762-16.137c-2.968-5.479-5.698-11.156-8.168-16.993     c-2.51-5.917-4.722-11.953-6.594-17.988c-1.872-6.036-3.486-12.253-4.761-18.567c-1.295-6.375-2.311-12.909-2.968-19.523     C111.503,319.029,111.164,312.435,111.164,306L111.164,306z M344.907,496.932c-5.181,1.035-10.22-2.331-11.235-7.511     c-1.036-5.18,2.33-10.22,7.51-11.236l0.279-0.06l0.479-0.08c5.458-1.135,10.917-2.55,16.216-4.184v-0.021     c5.678-1.753,11.097-3.745,16.235-5.917c4.98-2.111,10.102-4.602,15.28-7.391l0.559-0.279c4.722-2.569,9.402-5.438,13.984-8.546     c4.701-3.168,9.225-6.555,13.527-10.101l0.478-0.38c3.944-3.286,7.97-6.973,11.993-10.997c4.185-4.184,8.028-8.366,11.396-12.471     c3.445-4.184,6.833-8.726,10.08-13.527c3.246-4.819,6.216-9.682,8.846-14.481h-0.021c2.75-5.102,5.24-10.24,7.393-15.32     c2.211-5.199,4.184-10.639,5.917-16.217c1.713-5.518,3.167-11.116,4.321-16.773c1.177-5.758,2.072-11.635,2.671-17.57     c0.558-5.639,0.855-11.614,0.855-17.851c0-5.279,4.283-9.562,9.563-9.562c5.279,0,9.562,4.283,9.562,9.562     c0,6.436-0.357,13.029-1.016,19.723c-0.657,6.613-1.674,13.129-2.969,19.522c-1.296,6.315-2.89,12.531-4.762,18.567     c-1.873,6.036-4.084,12.073-6.595,17.989c-2.51,5.938-5.259,11.614-8.147,16.974h-0.021l-0.021,0.04     c-3.088,5.678-6.375,11.076-9.762,16.117c-3.387,5-7.151,10.021-11.196,14.94c-4.163,5.061-8.387,9.701-12.569,13.886     c-4.045,4.045-8.507,8.089-13.349,12.112l-0.497,0.438c-4.843,4.005-9.861,7.75-15.003,11.235     c-4.979,3.388-10.238,6.574-15.697,9.543l-0.418,0.238c-5.261,2.851-10.957,5.6-16.993,8.148     c-5.978,2.51-12.015,4.741-17.95,6.594l0,0h-0.04c-5.816,1.793-11.793,3.348-17.85,4.622l-0.758,0.18L344.907,496.932     L344.907,496.932z M496.932,267.073c1.035,5.18-2.331,10.2-7.511,11.236c-5.18,1.036-10.2-2.331-11.236-7.511l-0.06-0.279     l-0.08-0.478c-1.135-5.479-2.55-10.917-4.203-16.256c-1.732-5.578-3.726-11.017-5.917-16.216     c-2.032-4.841,0.239-10.439,5.08-12.471c4.841-2.032,10.439,0.239,12.472,5.08c2.511,5.917,4.722,11.953,6.595,17.99     c1.812,5.797,3.347,11.793,4.622,17.87l0.179,0.737L496.932,267.073z" fill="#acacac"/>
		</g>
	</g>
</g>
<g>
</g>
<g>
</g>
<g>
</g>
<g>
</g>
<g>
</g>
<g>
</g>
<g>
</g>
<g>
</g>
<g>
</g>
<g>
</g>
<g>
</g>
<g>
</g>
<g>
</g>
<g>
</g>
<g>
</g>
</svg>
