<?xml version="1.0"?>
<svg xmlns="http://www.w3.org/2000/svg" height="512px" viewBox="-63 0 511 511.99997" width="512px"><path d="m354.394531 420.785156c-1.925781-3.667968-6.460937-5.082031-10.125-3.15625-3.667969 1.925782-5.082031 6.460938-3.15625 10.128906l27.460938 52.332032c2.964843 5.648437.792969 12.617187-4.855469 15.582031-5.679688 2.976563-12.632812.769531-15.585938-4.859375l-68.949218-131.390625c-.394532-.757813-.410156-1.667969-.039063-2.4375l11.886719-24.667969 33.757812 64.332032c1.925782 3.667968 6.460938 5.074218 10.128907 3.15625 3.664062-1.925782 5.078125-6.460938 3.15625-10.128907l-38.4375-73.246093c-1.757813-3.34375-5.195313-5.390626-8.972657-5.316407-3.777343.066407-7.140624 2.222657-8.78125 5.621094l-16.253906 33.734375c-2.421875 5.027344-2.320312 10.980469.273438 15.921875l68.949218 131.394531c6.847657 13.046875 22.898438 17.953125 35.835938 11.171875 12.992188-6.820312 17.988281-22.847656 11.171875-35.839843zm0 0" fill="#acacac"/><path d="m281.523438 281.988281-49.59375-107.316406 78.382812-66.207031c3.164062-2.671875 3.5625-7.402344.890625-10.570313-2.671875-3.160156-7.40625-3.5625-10.570313-.890625l-82.746093 69.894532c-2.582031 2.179687-3.386719 5.8125-1.96875 8.878906l51.988281 112.507812c1.453125 3.140625 1.425781 6.730469-.078125 9.851563l-50.460937 104.730469c-.527344 1.09375-1.21875 2.09375-2.058594 2.96875l-83.785156 87.59375c-4.492188 4.699218-11.796876 4.6875-16.320313.363281-4.609375-4.410157-4.769531-11.707031-.359375-16.316407l81.699219-85.414062c.542969-.570312.996093-1.222656 1.335937-1.929688l45.253906-93.917968c.972657-2.023438.992188-4.367188.050782-6.402344l-54.308594-117.523438c-2.171875-4.699218-.925781-10.316406 3.03125-13.660156l64.265625-54.28125s15.332031-12.953125 15.457031-13.054687c3.6875-3.117188 3.511719-8.867188-.363281-11.75-68.070313-50.636719-40.625-30.21875-58.808594-43.746094-5.1875-3.859375-6.105469-11.136719-2.371093-16.148437 3.800781-5.109376 11.042968-6.171876 16.148437-2.371094l75.921875 56.476562c3.320312 2.472656 8.019531 1.78125 10.492188-1.542968 2.472656-3.320313 1.785156-8.019532-1.539063-10.492188l-75.921875-56.480469c-11.742188-8.738281-28.402344-6.289062-37.136719 5.453125-1.136719 1.523438-2.085937 3.144532-2.859375 4.832032-4.644531 1.792968-8.714844 4.84375-11.714844 8.875-7.355468 9.886718-6.78125 23.257812.589844 32.453124l-14.363281 8.839844c-3.335937-1.050781-6.882813-1.617187-10.558594-1.617187-17.5 0-32.054687 12.808593-34.8125 29.539062-111.816406 68.949219-85.261719 52.628907-111.964843 68.898438-9.5 5.789062-13.984376 17.292969-10.90625 27.980469l5.195312 18.042968c3.304688 11.46875 15.773438 17.554688 26.8125 13.207032 9.65625-3.800782 14.9375-14.234376 12.285156-24.265626l-4.421875-16.714843c-1.179687-4.457031-1.292969-9.191407-.328125-13.699219l1.097656-5.121094 83.542969-51.515625c4.652344 14.054688 17.910157 24.226563 33.503907 24.226563 19.457031 0 35.285156-15.832032 35.285156-35.289063 0-9.71875-3.949219-18.53125-10.328125-24.921875l12.136719-7.46875 43.027343 32.011719-57.042969 48.183594c-9.101562 7.683593-11.964843 20.601562-6.96875 31.410156l52.824219 114.308594-43.199219 89.660156-80.882812 84.554687c-10.140625 10.601563-9.765625 27.386719.835938 37.527344 10.410156 9.957032 27.203124 9.957032 37.527343-.832031l83.789063-87.597656c1.929687-2.019531 3.519531-4.3125 4.730468-6.824219l50.460938-104.734375c3.453125-7.167969 3.519531-15.425781.179688-22.652344zm-253.550782-74.203125c-2.851562 1.121094-6.050781-.453125-6.902344-3.402344l-5.191406-18.039062c-1.214844-4.210938.550782-8.742188 4.292969-11.019531l5.199219-3.167969c-.101563 4.1875.386718 8.390625 1.457031 12.441406l4.421875 16.714844c.707031 2.675781-.699219 5.457031-3.277344 6.472656zm131.171875-88.132812c-11.1875 0-20.285156-9.101563-20.285156-20.289063 0-11.183593 9.097656-20.285156 20.285156-20.285156s20.285157 9.101563 20.285157 20.285156c0 11.1875-9.097657 20.289063-20.285157 20.289063zm37.933594-70.804688c-3.8125-3.40625-4.886719-8.910156-2.777344-13.457031 1.417969 4.015625 3.929688 7.824219 7.160157 10.757813zm12.917969 9.664063 4.304687-2.648438 40.421875 30.070313-3.6875 3.113281zm0 0" fill="#acacac"/></svg>
