<?xml version="1.0" encoding="iso-8859-1"?>
<!-- Generator: Adobe Illustrator 19.0.0, SVG Export Plug-In . SVG Version: 6.00 Build 0)  -->
<svg xmlns="http://www.w3.org/2000/svg" xmlns:xlink="http://www.w3.org/1999/xlink" version="1.1" id="Layer_1" x="0px" y="0px" viewBox="0 0 512.001 512.001" style="enable-background:new 0 0 512.001 512.001;" xml:space="preserve" width="512px" height="512px">
<g>
	<g>
		<circle cx="192.206" cy="92.096" r="36.101" fill="#acacac"/>
	</g>
</g>
<g>
	<g>
		<path d="M484.65,268.945l-212.62-93.343c-4.539-1.993-9.636,1.342-9.639,6.288c-0.02,43.792-0.097,210.312-0.097,230.166    c0,9.212,7.468,16.68,16.68,16.68c9.212,0,16.68-7.468,16.68-16.68v-95.195l159.355,69.959v108.501    c0,9.212,7.468,16.68,16.68,16.68c9.212,0,16.68-7.468,16.68-16.68l0.392-220.07C488.764,272.519,487.151,270.044,484.65,268.945z    " fill="#acacac"/>
	</g>
</g>
<g>
	<g>
		<path d="M354.257,32.896c-2.264-20.304-20.558-34.928-40.862-32.665c-20.059,2.236-34.564,20.12-32.729,40.13    c-4.175,1.786-7.655,5.183-9.413,9.756l-27.004,70.223l-42.949,22.534l-42.018-10.796c-13.046-3.351-26.337,4.506-29.689,17.552    l-3.102,12.078l25.096-11.852l-56.327,45.093c-4.504,3.709-6.853,9.422-6.257,15.226l7.215,70.619    c0.987,9.632,9.619,16.524,19.106,15.551c9.571-0.981,16.533-9.535,15.551-19.106l-6.147-59.94l51.149-42.104    c-7.172,9.9-26.638,36.774-33.862,46.746c2.718,26.497,3.077,30,5.496,53.591c1.814,17.69-10.256,33.85-27.774,37.052    l-5.012,13.369l-63.909-21.487c-10.94-3.68-22.796,2.208-26.475,13.151c-3.679,10.942,2.208,22.796,13.151,26.475l83.052,27.923    c6.83,2.298,14.187,0.895,19.66-3.443l-27.971,29.674c-7.92,8.4-7.529,21.629,0.871,29.548c8.401,7.921,21.632,7.527,29.548-0.871    l78.702-83.483c9.127-9.682,6.988-25.315-4.362-32.207l-29.112-17.674l4.762-18.536l0.088-0.344l26.121-101.67l47.397-24.868    c3.746-1.965,6.648-5.226,8.166-9.174l26.499-68.912c6.179,3.107,13.295,4.527,20.681,3.703    C341.896,71.494,356.52,53.2,354.257,32.896z M144.273,364.257c2.128-3.017,1.341-1.613,15.339-38.95l13.598,8.255    L144.273,364.257z" fill="#acacac"/>
	</g>
</g>
<g>
</g>
<g>
</g>
<g>
</g>
<g>
</g>
<g>
</g>
<g>
</g>
<g>
</g>
<g>
</g>
<g>
</g>
<g>
</g>
<g>
</g>
<g>
</g>
<g>
</g>
<g>
</g>
<g>
</g>
</svg>
