<?xml version="1.0"?>
<svg xmlns="http://www.w3.org/2000/svg" height="512px" viewBox="0 -32 384 384" width="512px"><path d="m192 320c107.664062 0 192-49.191406 192-112v-96c0-62.808594-84.335938-112-192-112s-192 49.191406-192 112v96c0 62.808594 84.335938 112 192 112zm0-288c86.726562 0 160 36.640625 160 80s-73.273438 80-160 80-160-36.640625-160-80 73.273438-80 160-80zm-160 142.703125c34.121094 29.9375 92.464844 49.296875 160 49.296875s125.878906-19.359375 160-49.296875v33.296875c0 43.359375-73.273438 80-160 80s-160-36.640625-160-80zm0 0" fill="#acacac"/></svg>
