<?xml version="1.0"?>
<svg xmlns="http://www.w3.org/2000/svg" height="512px" viewBox="0 0 512 512.00006" width="512px"><path d="m469.5 427h-53.5c-4.144531 0-7.5 3.359375-7.5 7.5 0 4.144531 3.355469 7.5 7.5 7.5h30v55h-154.933594c-24.972656 0-49.753906-43.027344-57.195312-59.605469-.070313-.15625-.144532-.308593-.226563-.460937l-37.011719-69.429688h40.226563l8.324219 14.171875c21.859375 37.210938 62.25 60.328125 105.40625 60.328125h33.410156c4.144531 0 7.5-3.359375 7.5-7.5 0-4.144531-3.355469-7.5-7.5-7.5h-33.410156c-37.859375 0-73.292969-20.28125-92.472656-52.925781-7.339844-12.5-204.230469-347.652344-212.222657-361.253906-6.386719-11.820313-21.109375-16.273438-32.96875-9.945313-11.875 6.324219-16.390625 21.140625-10.0625 33.023438 12.570313 23.582031 47.574219 89.238281 59.199219 111.046875 1.949219 3.65625 6.492188 5.039062 10.144531 3.089843 3.65625-1.945312 5.039063-6.488281 3.089844-10.144531l-19.339844-36.28125h25.875l102.804688 174.996094h-35.390625l-58.902344-110.492187c-1.945312-3.652344-6.492188-5.039063-10.144531-3.089844-3.65625 1.949218-5.039063 6.492187-3.089844 10.148437 9.96875 18.703125 134.738281 252.757813 143.183594 268.597657 1.007812 2.210937 8.160156 17.554687 19.414062 33.105468 16.871094 23.304688 34.152344 35.121094 51.359375 35.121094h178.433594c23.433594 0 42.5-19.066406 42.5-42.5s-19.066406-42.5-42.5-42.5zm-421.539062-338.386719-31.859376-59.765625c-2.441406-4.582031-.699218-10.292968 3.882813-12.734375 4.585937-2.445312 10.292969-.710937 12.746094 3.902344.050781.09375.101562.1875.15625.277344l40.136719 68.320312zm145.488281 204.996094 34.597656 58.894531h-39.410156l-31.394531-58.894531zm276.050781 203.390625h-8.5v-55h8.5c15.164062 0 27.5 12.335938 27.5 27.5s-12.335938 27.5-27.5 27.5zm0 0" fill="#acacac"/><path d="m342.726562 298.503906c42.734376 0 77.5-34.769531 77.5-77.5 0-16.554687-5.148437-32.347656-14.886718-45.675781-2.441406-3.347656-7.136719-4.074219-10.480469-1.632813-3.34375 2.445313-4.074219 7.136719-1.628906 10.480469 7.847656 10.742188 11.996093 23.476563 11.996093 36.828125 0 34.460938-28.039062 62.5-62.503906 62.5-34.460937 0-62.5-28.039062-62.5-62.5 0-34.460937 28.039063-62.5 62.5-62.5 10.246094 0 20 2.394532 29.003906 7.121094 3.667969 1.925781 8.199219.511719 10.125-3.15625 1.925782-3.667969.511719-8.203125-3.15625-10.125-11.015624-5.78125-23.453124-8.839844-35.972656-8.839844-42.734375 0-77.5 34.765625-77.5 77.5s34.769532 77.5 77.503906 77.5zm0 0" fill="#acacac"/><path d="m342.726562 173.503906c-26.195312 0-47.503906 21.308594-47.503906 47.5s21.308594 47.5 47.503906 47.5c26.191407 0 47.5-21.308594 47.5-47.5s-21.3125-47.5-47.5-47.5zm0 80c-17.921874 0-32.5-14.578125-32.5-32.5s14.578126-32.5 32.5-32.5c17.917969 0 32.5 14.578125 32.5 32.5s-14.582031 32.5-32.5 32.5zm0 0" fill="#acacac"/></svg>
