<?xml version="1.0"?>
<svg xmlns="http://www.w3.org/2000/svg" height="512px" viewBox="0 0 512.00003 512" width="512px"><path d="m137.785156 351.863281c0 5.96875 2.324219 11.585938 6.546875 15.804688 4.222657 4.222656 9.835938 6.546875 15.804688 6.546875s11.582031-2.324219 15.804687-6.546875l18.144532-18.144531 7.03125 7.03125c1.484374 1.484374 3.433593 2.226562 5.378906 2.226562 1.945312 0 3.890625-.742188 5.375-2.226562 2.96875-2.96875 2.96875-7.785157 0-10.753907l-7.03125-7.03125 37.492187-37.492187 7.03125 7.03125c1.484375 1.488281 3.429688 2.230468 5.375 2.230468 1.945313 0 3.894531-.742187 5.378907-2.230468 2.96875-2.96875 2.96875-7.78125 0-10.75l-7.03125-7.035156 37.488281-37.488282 7.03125 7.03125c1.484375 1.484375 3.433593 2.226563 5.378906 2.226563s3.890625-.742188 5.375-2.226563c2.96875-2.96875 2.96875-7.785156 0-10.753906l-7.03125-7.03125 37.492187-37.492188 7.03125 7.03125c1.484376 1.488282 3.429688 2.230469 5.375 2.230469 1.945313 0 3.894532-.742187 5.378907-2.230469 2.96875-2.96875 2.96875-7.78125 0-10.75l-7.03125-7.035156 18.144531-18.144531c4.21875-4.21875 6.546875-9.835937 6.546875-15.804687s-2.324219-11.585938-6.546875-15.804688c-4.222656-4.222656-9.835938-6.546875-15.804688-6.546875-5.972656 0-11.585937 2.324219-15.808593 6.546875l-18.144531 18.144531-7.03125-7.03125c-2.96875-2.96875-7.785157-2.96875-10.753907 0s-2.96875 7.785157 0 10.753907l7.03125 7.03125-37.488281 37.492187-7.035156-7.035156c-2.96875-2.96875-7.78125-2.96875-10.75 0-2.972656 2.972656-2.972656 7.785156 0 10.753906l7.03125 7.03125-37.492188 37.492187-7.03125-7.03125c-2.96875-2.96875-7.785156-2.96875-10.753906 0s-2.96875 7.78125 0 10.753907l7.03125 7.03125-37.492188 37.492187-7.03125-7.035156c-2.96875-2.96875-7.785156-2.96875-10.753906 0-2.96875 2.972656-2.96875 7.785156 0 10.753906l7.035156 7.03125-18.144531 18.144532c-4.222656 4.226562-6.546875 9.835937-6.546875 15.808593zm209.078125-196.832031c1.347657-1.347656 3.144531-2.09375 5.050781-2.09375 1.910157 0 3.703126.746094 5.054688 2.09375 1.347656 1.351562 2.089844 3.144531 2.089844 5.050781 0 1.910157-.742188 3.703125-2.089844 5.054688l-18.144531 18.144531-10.105469-10.105469zm-28.898437 28.898438 10.105468 10.105468-37.492187 37.492188-10.105469-10.105469zm-48.246094 48.246093 10.105469 10.105469-37.492188 37.488281-10.105469-10.101562zm-48.246094 48.246094 10.105469 10.101563-37.492187 37.492187-10.101563-10.101563zm-66.386718 66.390625 18.144531-18.148438 10.105469 10.105469-18.148438 18.144531c-1.347656 1.351563-3.144531 2.09375-5.050781 2.09375-1.910157 0-3.703125-.742187-5.050781-2.09375-1.351563-1.347656-2.09375-3.144531-2.09375-5.050781 0-1.910156.742187-3.703125 2.09375-5.050781zm0 0" fill="#acacac"/><path d="m491.578125 25.097656c-.765625-2.191406-2.484375-3.910156-4.675781-4.675781-48.152344-16.800781-100.554688-23.429687-151.554688-19.164063-20.234375 1.6875-40.476562 5.089844-60.160156 10.117188-63.367188 16.160156-121.445312 49.289062-167.953125 95.800781-24.339844 24.339844-45.054687 51.804688-61.570313 81.632813-2.035156 3.675781-.707031 8.304687 2.96875 10.335937 3.671876 2.035157 8.300782.707031 10.335938-2.96875 15.824219-28.585937 35.683594-54.914062 59.015625-78.246093 43.558594-43.558594 97.695313-74.859376 156.796875-90.722657l138.308594 138.308594c1.484375 1.484375 3.429687 2.226563 5.375 2.226563 1.945312 0 3.890625-.742188 5.375-2.226563 2.96875-2.96875 2.96875-7.78125 0-10.753906l-131.730469-131.730469c13.53125-2.902344 27.269531-5.003906 41.023437-6.289062l162.128907 162.128906c-1.285157 13.753906-3.386719 27.492187-6.289063 41.023437l-39.78125-39.78125c-2.96875-2.96875-7.785156-2.96875-10.753906 0s-2.96875 7.78125 0 10.753907l46.355469 46.355468c-15.875 59.109375-47.175781 113.25-90.71875 156.792969-43.558594 43.558594-97.703125 74.863281-156.804688 90.722656l-210.003906-210c4.199219-15.652343 9.503906-31.097656 15.816406-45.96875 1.640625-3.867187-.164062-8.332031-4.027343-9.972656-3.867188-1.640625-8.332032.164063-9.972657 4.027344-7.167969 16.894531-13.109375 34.492187-17.652343 52.300781-5.011719 19.597656-8.421876 39.835938-10.125 60.15625-4.328126 51.730469 2.121093 102.726562 19.164062 151.566406.765625 2.1875 2.484375 3.910156 4.675781 4.671875 38.664063 13.492188 80.066407 20.425781 121.285157 20.425781 10.113281 0 20.21875-.417968 30.269531-1.257812 20.230469-1.6875 40.472656-5.09375 60.160156-10.117188 63.371094-16.164062 121.453125-49.289062 167.964844-95.800781 46.496093-46.496093 79.625-104.574219 95.800781-167.953125 5.027344-19.679687 8.429688-39.917968 10.117188-60.15625.003906-.035156.003906-.070312.007812-.105468 4.25-50.964844-2.378906-103.335938-19.171875-151.457032zm-474.792969 307.980469c1.296875-13.792969 3.398438-27.53125 6.292969-41.023437l196.859375 196.859374c-13.535156 2.902344-27.269531 5.003907-41.023438 6.289063zm16.847656 145.277344c-13.449218-39.921875-19.644531-82.773438-18.160156-125.085938l143.25 143.246094c-42.3125 1.488281-85.164062-4.710937-125.089844-18.160156zm444.78125-444.769531c13.449219 39.925781 19.644532 82.777343 18.160157 125.085937l-143.246094-143.242187c42.308594-1.484376 85.160156 4.710937 125.085937 18.15625zm0 0" fill="#acacac"/></svg>
