<?xml version="1.0"?>
<svg xmlns="http://www.w3.org/2000/svg" height="512px" viewBox="-33 -26 852 852.49998" width="512px"><path d="m384.351562 637.632812c-29.425781 0-53.289062 23.851563-53.289062 53.277344 0 29.421875 23.863281 53.277344 53.289062 53.277344 29.417969 0 53.28125-23.855469 53.28125-53.277344 0-29.425781-23.863281-53.277344-53.28125-53.277344zm0 79.914063c-14.714843 0-26.644531-11.925781-26.644531-26.636719 0-14.710937 11.929688-26.640625 26.644531-26.640625 14.707032 0 26.636719 11.929688 26.636719 26.640625 0 14.710938-11.929687 26.636719-26.636719 26.636719zm0 0" fill="#acacac"/><path d="m517.550781 637.632812c-29.425781 0-53.277343 23.851563-53.277343 53.277344 0 29.421875 23.851562 53.277344 53.277343 53.277344 29.429688 0 53.28125-23.855469 53.28125-53.277344 0-29.425781-23.851562-53.277344-53.28125-53.277344zm0 79.914063c-14.714843 0-26.640625-11.925781-26.640625-26.636719 0-14.710937 11.925782-26.640625 26.640625-26.640625 14.714844 0 26.644531 11.929688 26.644531 26.640625 0 14.710938-11.929687 26.636719-26.644531 26.636719zm0 0" fill="#acacac"/><path d="m650.753906 637.632812c-29.429687 0-53.28125 23.851563-53.28125 53.277344 0 29.421875 23.851563 53.277344 53.28125 53.277344 29.425782 0 53.277344-23.855469 53.277344-53.277344 0-29.425781-23.851562-53.277344-53.277344-53.277344zm0 79.914063c-14.714844 0-26.644531-11.925781-26.644531-26.636719 0-14.710937 11.929687-26.640625 26.644531-26.640625s26.640625 11.929688 26.640625 26.640625c0 14.710938-11.925781 26.636719-26.640625 26.636719zm0 0" fill="#acacac"/><path d="m117.941406 637.632812c-29.425781 0-53.277344 23.851563-53.277344 53.277344 0 29.421875 23.851563 53.277344 53.277344 53.277344 29.429688 0 53.28125-23.855469 53.28125-53.277344 0-29.425781-23.851562-53.277344-53.28125-53.277344zm0 79.914063c-14.714844 0-26.640625-11.925781-26.640625-26.636719 0-14.710937 11.925781-26.640625 26.640625-26.640625s26.644532 11.929688 26.644532 26.640625c0 14.710938-11.929688 26.636719-26.644532 26.636719zm0 0" fill="#acacac"/><path d="m251.144531 637.632812c-29.429687 0-53.28125 23.851563-53.28125 53.277344 0 29.421875 23.851563 53.277344 53.28125 53.277344 29.425781 0 53.277344-23.855469 53.277344-53.277344 0-29.425781-23.851563-53.277344-53.277344-53.277344zm0 79.914063c-14.714843 0-26.644531-11.925781-26.644531-26.636719 0-14.710937 11.929688-26.640625 26.644531-26.640625 14.714844 0 26.640625 11.929688 26.640625 26.640625 0 14.710938-11.925781 26.636719-26.640625 26.636719zm0 0" fill="#acacac"/><path d="m237.828125 584.34375c0-29.417969-23.863281-53.28125-53.28125-53.28125-29.425781 0-53.289063 23.863281-53.289063 53.28125 0 29.425781 23.863282 53.289062 53.289063 53.289062 29.417969 0 53.28125-23.863281 53.28125-53.289062zm-53.28125 26.644531c-14.714844 0-26.644531-11.933593-26.644531-26.644531 0-14.707031 11.929687-26.640625 26.644531-26.640625 14.707031 0 26.636719 11.933594 26.636719 26.640625 0 14.710938-11.929688 26.644531-26.636719 26.644531zm0 0" fill="#acacac"/><path d="m371.027344 584.34375c0-29.417969-23.851563-53.28125-53.28125-53.28125-29.425782 0-53.277344 23.863281-53.277344 53.28125 0 29.425781 23.851562 53.289062 53.277344 53.289062 29.429687 0 53.28125-23.863281 53.28125-53.289062zm-53.28125 26.644531c-14.714844 0-26.640625-11.933593-26.640625-26.644531 0-14.707031 11.925781-26.640625 26.640625-26.640625s26.644531 11.933594 26.644531 26.640625c0 14.710938-11.929687 26.644531-26.644531 26.644531zm0 0" fill="#acacac"/><path d="m504.226562 584.34375c0-29.417969-23.851562-53.28125-53.277343-53.28125-29.429688 0-53.28125 23.863281-53.28125 53.28125 0 29.425781 23.851562 53.289062 53.28125 53.289062 29.425781 0 53.277343-23.863281 53.277343-53.289062zm-53.277343 26.644531c-14.714844 0-26.644531-11.933593-26.644531-26.644531 0-14.707031 11.929687-26.640625 26.644531-26.640625 14.714843 0 26.640625 11.933594 26.640625 26.640625 0 14.710938-11.925782 26.644531-26.640625 26.644531zm0 0" fill="#acacac"/><path d="m251.144531 531.0625c29.425781 0 53.277344-23.855469 53.277344-53.28125s-23.851563-53.28125-53.277344-53.28125c-29.429687 0-53.28125 23.855469-53.28125 53.28125s23.851563 53.28125 53.28125 53.28125zm0-79.917969c14.714844 0 26.640625 11.925781 26.640625 26.636719 0 14.714844-11.925781 26.640625-26.640625 26.640625-14.714843 0-26.644531-11.925781-26.644531-26.640625 0-14.710938 11.929688-26.636719 26.644531-26.636719zm0 0" fill="#acacac"/><path d="m331.0625 477.78125c0 29.425781 23.863281 53.28125 53.289062 53.28125 29.417969 0 53.28125-23.855469 53.28125-53.28125s-23.863281-53.28125-53.28125-53.28125c-29.425781 0-53.289062 23.855469-53.289062 53.28125zm79.925781 0c0 14.714844-11.929687 26.640625-26.636719 26.640625-14.714843 0-26.644531-11.925781-26.644531-26.640625 0-14.710938 11.929688-26.636719 26.644531-26.636719 14.707032 0 26.636719 11.925781 26.636719 26.636719zm0 0" fill="#acacac"/><path d="m317.746094 424.5c29.429687 0 53.28125-23.855469 53.28125-53.277344 0-29.429687-23.851563-53.285156-53.28125-53.285156-29.425782 0-53.277344 23.855469-53.277344 53.285156 0 29.421875 23.851562 53.277344 53.277344 53.277344zm0-79.917969c14.714844 0 26.644531 11.929688 26.644531 26.640625 0 14.710938-11.929687 26.636719-26.644531 26.636719s-26.640625-11.925781-26.640625-26.636719c0-14.710937 11.925781-26.640625 26.640625-26.640625zm0 0" fill="#acacac"/><path d="m397.667969 371.222656c0 29.421875 23.851562 53.277344 53.28125 53.277344 29.425781 0 53.277343-23.855469 53.277343-53.277344 0-29.429687-23.851562-53.285156-53.277343-53.285156-29.429688 0-53.28125 23.855469-53.28125 53.285156zm53.28125-26.640625c14.714843 0 26.640625 11.929688 26.640625 26.640625 0 14.710938-11.925782 26.636719-26.640625 26.636719-14.714844 0-26.644531-11.925781-26.644531-26.636719 0-14.710937 11.929687-26.640625 26.644531-26.640625zm0 0" fill="#acacac"/><path d="m384.351562 317.9375c29.417969 0 53.28125-23.851562 53.28125-53.277344 0-29.429687-23.863281-53.28125-53.28125-53.28125-29.425781 0-53.289062 23.851563-53.289062 53.28125 0 29.425782 23.863281 53.277344 53.289062 53.277344zm0-79.914062c14.707032 0 26.636719 11.925781 26.636719 26.636718 0 14.714844-11.929687 26.640625-26.636719 26.640625-14.714843 0-26.644531-11.925781-26.644531-26.640625 0-14.710937 11.929688-26.636718 26.644531-26.636718zm0 0" fill="#acacac"/><path d="m464.273438 477.78125c0 29.425781 23.851562 53.28125 53.277343 53.28125 29.429688 0 53.28125-23.855469 53.28125-53.28125s-23.851562-53.28125-53.28125-53.28125c-29.425781 0-53.277343 23.855469-53.277343 53.28125zm53.277343-26.636719c14.714844 0 26.644531 11.925781 26.644531 26.636719 0 14.714844-11.929687 26.640625-26.644531 26.640625-14.714843 0-26.640625-11.925781-26.640625-26.640625 0-14.710938 11.925782-26.636719 26.640625-26.636719zm0 0" fill="#acacac"/><path d="m637.4375 584.34375c0-29.417969-23.863281-53.28125-53.28125-53.28125-29.425781 0-53.289062 23.863281-53.289062 53.28125 0 29.425781 23.863281 53.289062 53.289062 53.289062 29.417969 0 53.28125-23.863281 53.28125-53.289062zm-53.28125 26.644531c-14.714844 0-26.644531-11.933593-26.644531-26.644531 0-14.707031 11.929687-26.640625 26.644531-26.640625 14.707031 0 26.636719 11.933594 26.636719 26.640625 0 14.710938-11.929688 26.644531-26.636719 26.644531zm0 0" fill="#acacac"/><path d="m446.371094 164.582031c-13.941406-20.597656-37.148438-32.992187-62.019532-33.128906-25.035156.183594-48.363281 12.738281-62.289062 33.542969l-299.949219 461.882812c-15.710937 22.734375-24.097656 49.71875-24.054687 77.347656 0 73.59375 74.832031 93.242188 119.054687 93.242188h534.480469c44.210938 0 119.042969-19.648438 119.042969-93.242188.054687-27.472656-8.257813-54.3125-23.828125-76.949218zm205.222656 606.25h-534.53125c-9.453125 0-92.367188-1.878906-92.367188-66.605469-.011718-22.316406 6.804688-44.101562 19.546876-62.433593l299.839843-461.878907c8.996094-13.472656 24.0625-21.644531 40.269531-21.820312 16.023438.152344 30.953126 8.152344 39.953126 21.40625l300.429687 462.683594c12.585937 18.238281 19.304687 39.886718 19.265625 62.042968 0 64.726563-82.960938 66.605469-92.40625 66.605469zm0 0" fill="#acacac"/><path d="m9.765625 316.324219c-15.140625 15.683593-14.925781 40.609375.488281 56.019531 15.414063 15.414062 40.339844 15.632812 56.019532.488281l37.65625-37.652343 331.386718-313.933594c3.957032-3.75 5.230469-9.535156 3.210938-14.597656-2.015625-5.066407-6.914063-8.390626-12.367188-8.398438h-100.179687c-3.601563-.007812-7.050781 1.429688-9.566407 3.996094l-269.070312 276.542968zm321.832031-291.433594h61.132813l-297.949219 282.257813-19.222656-19.210938zm-255.910156 300.851563-28.25 28.253906c-5.226562 5.050781-13.535156 4.976562-18.671875-.160156-5.140625-5.140626-5.214844-13.441407-.167969-18.675782l28.261719-28.25zm0 0" fill="#acacac"/><path d="m632.960938 154.101562-37.539063-37.582031c-15.8125-15.082031-40.691406-15.082031-56.507813 0-15.597656 15.609375-15.597656 40.902344 0 56.507813l37.660157 37.660156 184.390625 194.660156c3.75 3.957032 9.535156 5.234375 14.605468 3.214844 5.066407-2.023438 8.390626-6.925781 8.390626-12.378906v-89.523438c.003906-3.589844-1.441407-7.027344-4-9.539062zm-75.207032.128907c-5.203125-5.199219-5.203125-13.632813 0-18.832031 5.199219-5.191407 13.621094-5.191407 18.820313 0l28.253906 28.25-18.839844 18.835937zm199.5625 208.523437-152.726562-161.179687 19.21875-19.226563 133.507812 129.929688zm0 0" fill="#acacac"/></svg>
