<?xml version="1.0"?>
<svg xmlns="http://www.w3.org/2000/svg" height="512px" viewBox="-13 -12 396.02326 396" width="512px"><path d="m185.609375.0117188c-88.558594.0039062-164.78125 62.5585932-182.058594 149.4179692-17.273437 86.855468 29.214844 173.820312 111.03125 207.703124 81.816407 33.890626 176.179688 5.261719 225.371094-68.375 49.199219-73.632812 39.53125-171.765624-23.089844-234.382812-34.738281-34.921875-82.003906-54.5-131.253906-54.3632812zm115.542969 70.4414062c26.167968 26.101563 42.613281 60.367187 46.613281 97.113281-36.832031-4.007812-71.175781-20.523437-97.300781-46.792968-2.925782-2.925782-5.730469-5.945313-8.402344-9.0625 18.972656-14.761719 38.695312-28.539063 59.089844-41.269532zm-72.542969 23.265625c-13.648437-21.160156-22.179687-45.214844-24.929687-70.246094 28.957031 3.136719 56.523437 14.050782 79.78125 31.582032-18.867188 12.023437-37.152344 24.910156-54.851563 38.660156zm-158.367187-23.457031c29.40625-29.570313 69.078124-46.660157 110.769531-47.71875 2.777343 30.476562 13.082031 59.78125 29.992187 85.285156-37.171875 30.777344-71.214844 65.148437-101.636718 102.609375-25.886719-17.34375-55.757813-27.824219-86.808594-30.445312 1.3125-41.320313 18.367187-80.578126 47.683594-109.730469zm51.457031 179.28125c26.496093 26.40625 43.0625 61.152343 46.90625 98.359375-36.554688-3.734375-70.75-19.796875-96.964844-45.546875l.183594.117187 4.84375-7.746094c11.390625-18.21875 23.609375-35.882812 36.664062-53 2.859375 2.503907 5.648438 5.105469 8.367188 7.816407zm-64.085938 33.28125-1.394531 2.226562c-18.441406-23.863281-29.835938-52.417969-32.890625-82.417969 25.726563 2.617188 50.449219 11.375 72.089844 25.539063-13.433594 17.632813-26.035157 35.847656-37.804688 54.652344zm243.363281 18.175781c-29.15625 29.316406-68.417968 46.375-109.742187 47.683594-3.738281-43.476563-22.746094-84.222656-53.648437-115.027344-3.34375-3.34375-6.789063-6.542969-10.339844-9.59375 29.160156-35.84375 61.746094-68.757812 97.292968-98.273438 3.1875 3.734376 6.535157 7.363282 10.035157 10.878907 30.550781 30.722656 70.960937 49.695312 114.117187 53.582031-1.0625 41.679688-18.152344 81.347656-47.714844 110.746094zm0 0" fill="#acacac"/></svg>
