<svg height="512pt" viewBox="0 0 512 512" width="512pt" xmlns="http://www.w3.org/2000/svg"><path d="m446.90625 85.4375c-2.757812-3.085938-7.5-3.351562-10.589844-.59375-3.085937 2.761719-3.351562 7.503906-.589844 10.589844 39.511719 44.199218 61.273438 101.222656 61.273438 160.566406 0 86.996094-46.050781 164.0625-117.046875 206.792969-6.082031-2.253907-12.664063-4.316407-19.671875-6.183594 39.765625-48.324219 63.21875-122.175781 63.21875-200.609375s-23.453125-152.285156-63.21875-200.609375c6.96875-1.855469 13.519531-3.910156 19.570312-6.144531 11.886719 7.121094 23.203126 15.292968 33.800782 24.46875 3.132812 2.710937 7.867187 2.371094 10.578125-.761719 2.710937-3.132813 2.371093-7.867187-.761719-10.582031-46.394531-40.160156-105.847656-62.371094-167.46875-62.371094-141.484375 0-256 114.496094-256 256 0 67.597656 26.105469 131.355469 73.507812 179.53125 2.894532 2.945312 7.644532 3.003906 10.605469.085938 2.953125-2.902344 2.992188-7.652344.085938-10.605469-44.625-45.355469-69.199219-105.375-69.199219-169.011719 0-86.996094 46.050781-164.066406 117.046875-206.792969 6.082031 2.253907 12.660156 4.316407 19.667969 6.183594-11.839844 14.375-22.328125 31.105469-31.265625 49.894531-1.777344 3.742188-.1875 8.214844 3.550781 9.996094 3.742188 1.777344 8.214844.1875 9.996094-3.550781 9.625-20.242188 21.109375-37.875 34.167968-52.480469 13.660157 2.804688 28.507813 4.9375 44.089844 6.335938-12.59375 47.957031-19.753906 116.59375-19.753906 190.414062s7.160156 142.457031 19.753906 190.417969c-15.582031 1.394531-30.429687 3.527343-44.089844 6.335937-40.554687-45.367187-64.664062-118.507812-64.664062-196.753906 0-40.210938 6.433594-80.027344 18.605469-115.144531 1.355469-3.914063-.71875-8.1875-4.628907-9.542969-3.914062-1.355469-8.1875.714844-9.542968 4.628906-12.714844 36.679688-19.433594 78.195313-19.433594 120.058594 0 78.433594 23.453125 152.285156 63.21875 200.609375-6.996094 1.863281-13.570312 3.921875-19.640625 6.171875-8.53125-5.144531-16.800781-10.851562-24.769531-17.105469-3.257813-2.554687-7.972656-1.988281-10.53125 1.269531-2.558594 3.257813-1.988282 7.972657 1.269531 10.53125 45.4375 35.667969 100.058594 54.523438 157.953125 54.523438 141.484375 0 256-114.496094 256-256 0-63.039062-23.117188-123.609375-65.09375-170.5625zm-38.40625 170.5625c0 78.246094-24.109375 151.386719-64.664062 196.753906-13.660157-2.808594-28.507813-4.941406-44.089844-6.335937 12.59375-47.960938 19.753906-116.597657 19.753906-190.417969s-7.160156-142.457031-19.753906-190.417969c15.582031-1.394531 30.429687-3.527343 44.089844-6.335937 40.554687 45.367187 64.664062 118.507812 64.664062 196.753906zm-152.5-241c36.925781 0 73.0625 8.472656 105.742188 24.425781-59.757813 17.472657-152.085938 17.414063-211.644532-.046875 32.558594-15.953125 68.582032-24.378906 105.902344-24.378906zm-48.5 241c0-74.035156 7.257812-142.511719 19.980469-189.304688 9.335937.53125 18.871093.804688 28.519531.804688s19.183594-.273438 28.519531-.804688c12.722657 46.792969 19.980469 115.269532 19.980469 189.304688s-7.257812 142.511719-19.980469 189.304688c-18.828125-1.074219-38.203125-1.074219-57.039062 0-12.722657-46.792969-19.980469-115.269532-19.980469-189.304688zm-57.398438 216.621094c59.539063-17.457032 151.980469-17.539063 211.800782.003906-32.558594 15.949219-68.582032 24.375-105.902344 24.375-37.34375 0-73.238281-8.332031-105.898438-24.378906zm0 0"/></svg>