<svg height="512pt" viewBox="0 0 512 512.01318" width="512pt" xmlns="http://www.w3.org/2000/svg"><path d="m512.007812 256.003906c.007813-75.976562-33.789062-148.015625-92.21875-196.574218-.402343-.417969-.84375-.792969-1.324218-1.117188-64.769532-53.324219-151.570313-71.492188-232.289063-48.621094s-145.085937 83.875-172.257812 163.246094c-.09375.222656-.152344.445312-.230469.675781-21.496094 62.988281-17.542969 131.882813 11.015625 192 .128906.332031.277344.65625.445313.972657 45.09375 94.195312 142.894531 151.546874 247.117187 144.90625 104.222656-6.636719 193.957031-75.933594 226.738281-175.089844v-.085938c8.605469-25.902344 12.996094-53.019531 13.003906-80.3125zm-17.066406 0c-.011718 18.003906-2.0625 35.949219-6.109375 53.492188-20.277343-37.679688-46.863281-71.605469-78.601562-100.308594-57.71875-52.453125-106.332031-75.175781-139.09375-84.980469 2.726562-14.066406.320312-28.640625-6.78125-41.082031-.300781-.519531-.667969-.980469-.984375-1.492188 25.882812-10.242187 70.949218-18.125 146.945312-7.851562 53.667969 45.3125 84.628906 111.980469 84.625 182.222656zm-340.726562-109.289062c-13.109375-22.707032-2.382813-53.527344 23.894531-68.699219 9.234375-5.398437 19.730469-8.273437 30.429687-8.339844.628907 0 1.253907.085938 1.882813.105469h.222656c15.886719.050781 30.613281 8.320312 38.921875 21.859375 6.285156 11.214844 7.378906 24.609375 2.996094 36.695313-4.769531 13.597656-14.335938 24.984374-26.90625 32.023437-26.273438 15.191406-58.328125 9.0625-71.441406-13.644531zm145.066406-125.652344c29.621094 5.4375 57.941406 16.464844 83.4375 32.496094-66.507812-5.523438-107.082031 3.855468-130.976562 14.4375-7.863282-6.636719-17.214844-11.269532-27.257813-13.5 15.675781-19.78125 48.054687-29.074219 74.761719-33.433594zm-50.773438-3.804688c-17.996093 6.53125-33.191406 19.074219-43.015624 35.507813-12.644532.523437-24.96875 4.117187-35.910157 10.46875-16.023437 9.089844-28.222656 23.664063-34.347656 41.035156-21.9375-2.675781-51.335937 2.5625-84.980469 30.472657 41.589844-70.523438 116.386719-114.855469 198.21875-117.484376zm-219.128906 163.226563c34.628906-42.386719 69.847656-62.722656 102.453125-59.429687-.976562 11.90625 1.671875 23.824218 7.59375 34.195312.066407.117188.152344.210938.222657.324219-27.613282 24.730469-52.714844 52.132812-74.941407 81.800781-19.308593 25.792969-32.132812 55.855469-37.390625 87.644531-14.304687-47.230469-13.582031-97.734375 2.0625-144.535156zm11.835938 180.050781c-.078125-40.652344 12.949218-80.246094 37.144531-112.914062 21.375-28.539063 45.496094-54.914063 72.015625-78.753906 12.328125 11.078124 28.378906 17.105468 44.953125 16.878906 3.402344-.007813 6.800781-.25 10.171875-.722656 1.519531 27.648437 5.058594 62.402343 10.554688 103.601562 10.582031 72.972656 38.160156 142.4375 80.511718 202.796875-104.773437 18.191406-208.929687-35.1875-255.351562-130.859375zm273.589844 127.0625c-43.167969-59.460937-71.253907-128.515625-81.835938-201.226562-5.675781-42.5625-9.214844-78.019532-10.609375-105.742188 4.089844-1.503906 8.046875-3.335937 11.835937-5.480468 13.976563-7.9375 25.121094-20.050782 31.875-34.636719 27.039063 8.148437 74.980469 28.867187 132.675782 81.304687 34.941406 31.359375 63.21875 69.429688 83.140625 111.941406-26.351563 76.070313-89.101563 133.847657-167.082031 153.839844zm0 0"/><path d="m198.125 443.941406c-72.234375-16.050781-122.023438-97.640625-122.535156-98.46875-2.46875-3.941406-7.644532-5.183594-11.632813-2.785156-3.984375 2.394531-5.320312 7.546875-2.996093 11.578125 2.160156 3.609375 54 88.675781 133.460937 106.332031.609375.132813 1.230469.203125 1.851563.203125 4.351562-.007812 7.996093-3.28125 8.46875-7.605469.472656-4.320312-2.378907-8.308593-6.625-9.253906zm0 0"/><path d="m238.941406 460.800781c0 4.714844-3.820312 8.535157-8.53125 8.535157-4.714844 0-8.535156-3.820313-8.535156-8.535157 0-4.710937 3.820312-8.53125 8.535156-8.53125 4.710938 0 8.53125 3.820313 8.53125 8.53125zm0 0"/></svg>