<?xml version="1.0"?>
<svg xmlns="http://www.w3.org/2000/svg" height="512px" viewBox="-46 0 475 475.04546" width="512px"><path d="m343.410156 286.699219c24.871094-44.375 32.859375-96.25 22.488282-146.054688-8.792969-49.664062-38.632813-93.101562-81.84375-119.121093-84.878907-49.023438-206.078126-11.085938-259.351563 81.175781-30.71875 53.175781-32.890625 118.171875-5.789063 173.28125 11.054688 22.410156 26.574219 42.332031 45.597657 58.535156l-62.863281 96.152344c-1.203126 1.839843-1.5937505 4.09375-1.085938 6.230469.511719 2.140624 1.878906 3.972656 3.78125 5.074218l55.425781 32c1.902344 1.101563 4.179688 1.367188 6.285157.738282 2.109374-.625 3.867187-2.09375 4.859374-4.058594l51.878907-102.679688c19.691406 7.070313 40.445312 10.71875 61.367187 10.792969 3.847656 0 7.695313-.144531 11.527344-.394531h.546875c61.28125-4.078125 116.492187-38.464844 147.175781-91.671875zm-282.96875 169.183593-40.800781-23.535156 57.503906-87.894531c.488281.34375 1.015625.621094 1.503907.964844 4.367187 3.066406 8.800781 5.992187 13.382812 8.632812 4.585938 2.640625 9.335938 5.023438 14.175781 7.273438.539063.253906 1.035157.566406 1.601563.800781zm61.320313-105.191406c-36.359375-14.542968-66.523438-41.289062-85.3125-75.648437l.207031-.117188c3.257812-1.992187 6.660156-3.738281 10.175781-5.21875.222657-.101562.441407-.214843.671875-.3125 3.484375-1.421875 7.058594-2.609375 10.703125-3.542969.433594-.113281.859375-.246093 1.289063-.351562 3.613281-.875 7.28125-1.527344 10.976562-1.945312.550782-.0625 1.097656-.136719 1.648438-.191407 3.722656-.363281 7.460937-.507812 11.199218-.4375.601563 0 1.203126.015625 1.800782.046875 3.828125.128906 7.644531.476563 11.429687 1.03125l1.753907.289063c3.910156.636719 7.78125 1.488281 11.601562 2.542969.484375.136718.980469.304687 1.476562.449218 3.996094 1.167969 7.921876 2.554688 11.761719 4.152344.3125.125.609375.285156.921875.414062 4.113282 1.753907 8.117188 3.746094 12 5.96875 2.132813 1.222657 4.207032 2.511719 6.230469 3.871094.671875.449219 1.304687.929688 1.96875 1.390625 1.320313.921875 2.648437 1.851563 3.917969 2.816407.800781.585937 1.488281 1.195312 2.234375 1.792968 1.117187.90625 2.246093 1.800782 3.320312 2.726563.757813.664062 1.484375 1.355469 2.222657 2.027343 1.007812.917969 2.015624 1.847657 2.976562 2.789063.726562.722656 1.414062 1.457031 2.117188 2.183594.914062.960937 1.824218 1.914062 2.707031 2.898437.679687.800782 1.335937 1.550782 1.992187 2.328125.796875.984375 1.648438 1.96875 2.398438 2.976563.632812.796875 1.25 1.597656 1.855468 2.460937.746094 1.019531 1.472657 2.035157 2.175782 3.066407.578125.847656 1.136718 1.695312 1.679687 2.550781.671875 1.046875 1.320313 2.113281 1.945313 3.199219.503906.867187 1.007812 1.738281 1.488281 2.617187.589844 1.082031 1.152344 2.183594 1.703125 3.28125.441406.878906.871094 1.765625 1.289062 2.65625.511719 1.117187.984376 2.246094 1.457032 3.382813.367187.886718.742187 1.785156 1.078125 2.679687.441406 1.167969.800781 2.335937 1.214843 3.511719.289063.878906.59375 1.761718.859376 2.640625.359374 1.222656.652343 2.457031.957031 3.679687.21875.855469.449219 1.703125.632812 2.558594.28125 1.320312.496094 2.648438.710938 4 .121093.800781.28125 1.539062.386719 2.304688.214843 1.601562.351562 3.25.460937 4.871093 0 .480469.105469.960938.128906 1.433594.113281 2.082031.128907 4.152344.066407 6.214844-22.75.5625-45.375-3.535157-66.480469-12.039063zm82.535156 10.832032c0-1.046876-.0625-2.105469-.089844-3.152344-.023437-1.046875 0-2.085938-.085937-3.128906-.089844-1.511719-.25-3.023438-.410156-4.535157-.101563-.941406-.167969-1.894531-.292969-2.839843-.25-1.785157-.585938-3.566407-.929688-5.351563-.128906-.65625-.214843-1.328125-.359375-1.984375-.535156-2.429688-1.148437-4.851562-1.847656-7.253906-.191406-.640625-.433594-1.273438-.632812-1.914063-.558594-1.757812-1.128907-3.519531-1.777344-5.261719-.34375-.90625-.742188-1.792968-1.101563-2.699218-.59375-1.453125-1.183593-2.917969-1.839843-4.359375-.449219-.96875-.9375-1.917969-1.410157-2.878907-.664062-1.34375-1.328125-2.6875-2.046875-4-.535156-.984374-1.113281-1.953124-1.671875-2.929687-.746093-1.269531-1.488281-2.542969-2.28125-3.789063-.621093-.976562-1.261719-1.9375-1.910156-2.898437-.800781-1.214844-1.65625-2.398437-2.527344-3.605469-.695312-.960937-1.40625-1.90625-2.136719-2.839844-.902343-1.164062-1.824218-2.308593-2.769531-3.433593-.800781-.921875-1.542969-1.839844-2.34375-2.742188-.984375-1.113281-2.007812-2.203125-3.03125-3.28125-.800781-.871093-1.65625-1.738281-2.511719-2.585937-1.089843-1.078125-2.214843-2.125-3.351562-3.199219-.863281-.800781-1.722656-1.597656-2.609375-2.398437-1.214844-1.066407-2.488281-2.089844-3.75-3.113282-.875-.703125-1.730469-1.421875-2.625-2.105468-1.441406-1.101563-2.9375-2.148438-4.433594-3.199219-.800781-.542969-1.527343-1.109375-2.328125-1.648438-2.320312-1.542969-4.6875-3.03125-7.136718-4.445312-2.445313-1.417969-5.039063-2.792969-7.605469-4.058594-.878907-.429687-1.777344-.796875-2.664063-1.207031-1.695312-.800782-3.382812-1.601563-5.097656-2.289063-1.101562-.453125-2.214844-.839843-3.328125-1.261719-1.519531-.578124-3.03125-1.175781-4.558594-1.6875-1.183593-.402343-2.398437-.730468-3.578125-1.097656-1.46875-.449218-2.933594-.917968-4.40625-1.3125-1.230468-.328125-2.472656-.582031-3.703125-.871094-1.449219-.335937-2.890625-.6875-4.328125-.976562-1.28125-.246094-2.550781-.429688-3.824218-.640625-1.410157-.230469-2.816407-.480469-4.222657-.65625-1.410156-.175781-2.59375-.269531-3.890625-.390625s-2.765625-.28125-4.152344-.359375c-1.382812-.082031-2.613281-.105469-3.925781-.136719-1.03125 0-2.074219-.105468-3.105469-.105468-.207031 0-.40625 0-.617187.042968-4.078125.023438-8.152344.273438-12.207031.742188l-2.152344.273437c-3.984375.523438-7.933594 1.273438-11.832031 2.246094-.535157.136719-1.0625.304687-1.597657.457031-3.972656 1.050782-7.878906 2.351563-11.6875 3.886719l-.144531.050781c-3.757812 1.570313-7.410156 3.390625-10.929687 5.445313-.335938.191406-.695313.320312-1.03125.511719-20.695313-48.605469-17.324219-104.113282 9.105468-149.855469 49.007813-84.886719 160-120.09375 237.484376-75.34375 77.488281 44.753906 102.503906 158.464843 53.488281 243.34375-26.402344 45.769531-72.796875 76.449219-125.246094 82.824219zm0 0" fill="#acacac"/><path d="m335.769531 363.042969c-26.511719 0-48 21.492187-48 48 0 26.511719 21.488281 48 48 48 26.507813 0 48-21.488281 48-48-.027343-26.496094-21.503906-47.972657-48-48zm0 80c-17.675781 0-32-14.324219-32-32 0-17.671875 14.324219-32 32-32 17.671875 0 32 14.328125 32 32 0 17.675781-14.328125 32-32 32zm0 0" fill="#acacac"/></svg>
