<?xml version="1.0" encoding="iso-8859-1"?>
<!-- Generator: Adobe Illustrator 18.1.1, SVG Export Plug-In . SVG Version: 6.00 Build 0)  -->
<svg xmlns="http://www.w3.org/2000/svg" xmlns:xlink="http://www.w3.org/1999/xlink" version="1.1" id="Capa_1" x="0px" y="0px" viewBox="0 0 212.319 212.319" style="enable-background:new 0 0 212.319 212.319;" xml:space="preserve" width="512px" height="512px">
<g>
	<g>
		<g>
			<path d="M136.254,76.086C115.01,54.846,101.636,28.67,98.569,2.394l-0.247-2.101l-2.097,0.2     C71.699,2.77,48.561,13.646,31.1,31.104C13.628,48.569,2.756,71.695,0.483,96.239l-0.2,2.108l2.097,0.236     c26.262,3.049,52.43,16.423,73.685,37.667c21.266,21.291,34.65,47.463,37.667,73.692l0.247,2.104l2.101-0.2     c24.515-2.265,47.645-13.134,65.142-30.613c17.472-17.465,28.348-40.598,30.606-65.128l0.183-2.104l-2.086-0.24     C183.688,110.722,157.523,97.348,136.254,76.086z M207.301,117.784c-2.57,22.74-12.898,44.163-29.139,60.39     c-16.262,16.241-37.682,26.58-60.386,29.153c-3.611-26.476-17.311-52.774-38.659-74.125C57.784,111.864,31.49,98.171,5,94.55     c2.588-22.747,12.916-44.163,29.153-60.39c16.234-16.227,37.65-26.555,60.39-29.153c3.622,26.516,17.325,52.81,38.648,74.139     C154.549,100.491,180.839,114.187,207.301,117.784z" fill="#acacac"/>
			<path d="M142.377,69.963c19.619,19.623,43.565,32.131,67.411,35.202l2.52,0.322l-0.079-2.534     c-0.809-27.149-11.817-52.674-30.989-71.863c-19.147-19.158-44.664-30.17-71.874-31.014L106.829,0l0.322,2.512     C110.221,26.376,122.733,50.322,142.377,69.963z M111.814,4.513c25.113,1.414,48.651,11.907,66.363,29.64     c17.762,17.769,28.248,41.3,29.615,66.359c-21.763-3.486-44.435-15.69-62.358-33.609     C127.493,48.973,115.289,26.287,111.814,4.513z" fill="#acacac"/>
		</g>
		<g>
			<g>
				<path d="M104.524,211.456l-1.564-0.047c-26.92-0.798-52.233-11.721-71.273-30.76      C12.655,161.61,1.721,136.286,0.913,109.345l-0.036-1.553l1.542,0.204c23.66,3.078,47.427,15.504,66.921,34.983      c19.208,19.226,31.956,43.619,34.973,66.935L104.524,211.456z M3.633,110.844c1.156,25.671,11.753,49.742,29.934,67.927      c18.188,18.191,42.259,28.788,67.912,29.926c-3.296-22.275-15.622-45.451-34.003-63.836      C49.095,126.491,25.911,114.158,3.633,110.844z" fill="#acacac"/>
				<path d="M105.483,212.319l-2.545-0.072c-27.135-0.798-52.641-11.81-71.838-31.011      c-19.193-19.19-30.195-44.714-31.018-71.863l-0.072-2.534l2.527,0.329c23.842,3.099,47.778,15.604,67.408,35.227      c19.329,19.347,32.16,43.916,35.202,67.408L105.483,212.319z M1.75,108.754l0.014,0.569c0.795,26.73,11.635,51.84,30.524,70.732      c18.882,18.889,43.998,29.73,70.704,30.517l0.558,0.018l-0.068-0.565c-2.992-23.134-15.647-47.352-34.729-66.441      c-19.369-19.362-42.961-31.698-66.441-34.754L1.75,108.754z M102.452,209.581l-1.013-0.039      c-25.846-1.156-50.168-11.871-68.471-30.177c-18.292-18.302-29.007-42.631-30.17-68.492l-0.05-1.013l1.013,0.15      c22.425,3.335,45.859,15.822,64.305,34.25c18.442,18.453,30.914,41.883,34.242,64.316L102.452,209.581z M4.52,111.825      c1.381,25.063,11.878,48.586,29.633,66.355c17.769,17.762,41.289,28.262,66.33,29.633c-3.486-21.77-15.693-44.435-33.613-62.361      C48.962,127.543,26.305,115.336,4.52,111.825z" fill="#acacac"/>
			</g>
		</g>
	</g>
</g>
<g>
</g>
<g>
</g>
<g>
</g>
<g>
</g>
<g>
</g>
<g>
</g>
<g>
</g>
<g>
</g>
<g>
</g>
<g>
</g>
<g>
</g>
<g>
</g>
<g>
</g>
<g>
</g>
<g>
</g>
</svg>
