<?xml version="1.0" encoding="iso-8859-1"?>
<!-- Generator: Adobe Illustrator 18.1.1, SVG Export Plug-In . SVG Version: 6.00 Build 0)  -->
<svg xmlns="http://www.w3.org/2000/svg" xmlns:xlink="http://www.w3.org/1999/xlink" version="1.1" id="Capa_1" x="0px" y="0px" viewBox="0 0 210.39 210.39" style="enable-background:new 0 0 210.39 210.39;" xml:space="preserve" width="512px" height="512px">
<g>
	<path d="M197.299,54.658c-5.916-10.704-12.24-18.903-18.778-24.379c-1.557-1.285-3.06-2.584-4.61-3.922   c-4.144-3.557-8.052-6.921-12.615-9.892c-15.661-10.142-34.3-15.801-53.894-16.345C94.783-0.217,81.914,1.827,69.152,6.243   C41.004,15.917,16.936,39.856,6.325,68.719c-6.488,17.697-8.049,37.828-4.384,56.668c4.549,23.22,17.347,44.707,36.039,60.508   c18.635,15.736,42.689,24.411,67.723,24.411h0.021h0.007c24.837,0,48.662-8.579,67.086-24.175   c11.753-9.892,21.355-22.246,27.754-35.728C214.75,120.53,213.497,83.843,197.299,54.658z M15.537,56.963   c0.465-0.92,0.963-1.746,1.772-1.746c0.107,0,0.225,0.018,0.319,0.047c0.744,0.261,0.916,1.138,1.013,1.979l0.057,0.319   c0.408,2.122,0.752,3.894,1.296,5.715c2.158,7.433,5.168,14.859,8.947,22.074c8.936,17.136,23.377,33.831,40.641,47.044   c6.42,4.899,12.311,8.804,17.991,11.914c1.464,0.816,2.942,1.589,4.402,2.351l1.367,0.716c0.186,0.1,0.376,0.193,0.58,0.286   c0.723,0.336,1.532,0.716,1.908,1.449c0.769,1.532-0.279,3.686-1.117,5.426c-0.24,0.472-0.451,0.909-0.594,1.263   c-2.337,5.633-4.917,11.599-8.4,17.093l-0.49,0.795c-1.038,1.714-2.777,4.581-4.695,4.581c-0.089,0-0.2-0.014-0.283-0.032   c-1.725-0.265-3.74-1.714-5.544-3.01c-0.633-0.455-1.235-0.888-1.764-1.217c-5.97-3.776-11.331-7.219-16.416-11.238   c-25.081-20.006-43.386-44.818-51.528-69.873c-0.823-2.523-0.143-5.426,0.472-7.984l0.268-1.185   c1.539-7.032,3.761-13.839,6.621-20.235C13.493,60.953,14.495,58.884,15.537,56.963z M6.479,103.67   c0.619,1.303,1.21,2.652,1.807,3.998l0.963,2.208c2.627,5.601,6.141,11.506,10.722,18.027c10.257,14.638,22.758,27.815,36.157,38.1   c4.642,3.554,9.767,7.022,15.21,10.293l1.908,1.174c0.866,0.526,1.729,1.059,2.62,1.596l0.379,0.225   c0.626,0.354,1.349,0.744,1.639,1.399c0.626,1.339-0.429,2.505-1.668,3.701l-0.322,0.319c-1.976,1.958-4.27,3.654-6.857,5.064   c-1.403,0.741-2.691,1.321-4.058,1.013c-2.745-0.655-5.361-1.965-7.906-3.232c-1.26-0.633-2.509-1.253-3.751-1.793   c-8.729-3.743-19.748-9.087-27.568-17.282c-1.686-1.739-3.06-3.837-4.395-5.887l-1.013-1.535   c-4.849-7.287-8.765-15.539-11.986-25.231c-2.709-8.142-4.323-16.792-4.799-25.707l-0.047-0.877   c-0.118-2.047-0.215-4.062-0.118-6.02c0.107-1.56,0.415-2.197,1.045-2.197c0.165,0,0.344,0.057,0.501,0.15   c0.687,0.422,1.045,1.31,1.342,2.036L6.479,103.67z M201.44,93.61l-0.097,0.311c-0.225,0.694-0.48,1.482-1.217,1.861   c-0.83,0.447-1.972-0.089-2.766-0.594l-0.401-0.243c-1.94-1.192-4.126-2.269-6.692-3.325c-6.975-2.817-15.765-4.434-24.1-4.434   l-0.977,0.004c-13.596,0.175-26.691,2.555-38.909,7.075c-4.273,1.593-8.625,3.507-12.465,5.204l-1.954,0.859   c-0.526,0.233-1.099,0.558-1.775,0.952c-1.338,0.78-2.859,1.661-4.209,1.661c-2.287-0.079-4.627-1.915-6.692-3.539l-0.24-0.183   c-0.648-0.508-1.253-0.977-1.804-1.331c-5.003-3.135-9.498-6.567-14.283-10.214l-0.53-0.404c-0.705-0.533-1.428-1.07-2.162-1.607   c-2.208-1.614-4.495-3.289-6.317-5.307c-0.415-0.472-0.644-1.081-0.598-1.636c0.029-0.444,0.211-0.809,0.558-1.102   c1.185-1.049,2.838-1.764,4.477-2.48l0.215-0.089c0.787-0.347,1.553-0.684,2.233-1.052c8.707-4.649,18.238-8.614,26.759-12.161   c16.151-6.739,32.961-10.3,48.604-10.3c5.018,0,9.935,0.365,14.627,1.092c8.178,1.253,18.542,3.554,26.197,10.261   c1.457,1.26,2.197,3.343,2.849,5.186c0.165,0.48,0.322,0.934,0.49,1.349c2.577,6.807,3.815,12.036,2.541,18.632   C202.407,90.164,201.981,91.935,201.44,93.61z M157.674,192.723l-0.211,0.122c-1.432,0.82-2.881,1.653-4.359,2.426l-0.225,0.125   c-0.558,0.311-1.453,0.637-1.868,0.344c-0.276-0.215-0.927-0.705,0.218-2.208c0.612-0.777,1.213-1.521,1.822-2.265l0.258-0.315   c0.476-0.587,0.956-1.167,1.424-1.757c5.068-6.306,9.892-12.533,13.238-19.304c4.602-9.291,8.024-18.13,10.175-26.294   c2.312-8.675,3.586-17.676,4.806-26.39l0.082-0.619c0.759-5.35,1.249-10.729,1.485-16.434c0.018-0.279,0.007-0.637-0.011-1.038   l-0.025-0.455c-0.1-1.714-0.236-3.844,0.694-4.699c0.261-0.24,0.633-0.354,1.109-0.354c0.701,0,1.457,0.243,1.983,0.465   l0.437,0.168c3.701,1.389,6.41,2.766,8.532,4.338c1.532,1.174,2.036,3.25,2.455,4.928l0.172,0.684   c1.052,4.234,1.875,9.015,2.437,14.197c0.057,0.633,0.136,1.267,0.211,1.911l0.064,0.487c0.347,2.892,0.716,5.873,0.451,8.718   c-1.793,20.267-15.847,38.204-27.325,49.682C171.052,183.797,165.158,188.224,157.674,192.723z M140.925,20.48   c-14.165,0-24.891,1.013-34.772,3.289c-7.312,1.661-14.355,4.27-21.162,6.786l-1.507,0.548c-1.142,0.426-2.283,0.841-3.425,1.253   c-7.233,2.616-13.653,5.59-19.072,8.84c-0.165,0.097-0.365,0.233-0.598,0.394l-0.372,0.251c-1.739,1.199-4.542,3.071-5.93,2.015   c-0.866-0.616-1.059-2.187-1.217-3.45L52.85,40.21c-0.036-0.251-0.057-0.472-0.097-0.637l-0.039-0.229   c-0.705-4.005-1.589-8.99,0.762-12.805c1.242-2.036,3.926-3.665,6.331-5.121l0.165-0.1c0.676-0.412,1.331-0.805,1.893-1.185   c7.09-4.86,14.598-9.015,22.965-13.546c3.955-2.14,9.452-3.185,16.799-3.185c1.646,0,3.364,0.047,5.411,0.147   c14.541,0.673,28.026,3.79,40.062,9.266c3.969,1.814,8.478,3.872,12.082,6.488c0.762,0.558,1.074,1.024,0.934,1.446   c-0.183,0.544-0.973,0.773-2.663,0.773c-0.716,0-1.417-0.047-1.807-0.079c-1.177-0.079-2.358-0.186-3.536-0.297l-0.626-0.054   C148.029,20.788,144.443,20.48,140.925,20.48z M80.099,203.76l-1.192-0.272c-1.811-0.408-3.865-0.88-5.418-1.843   c-1.754-1.149-3.307-3.121-4.638-4.878c-0.587-0.798-1.185-1.621-0.895-2.645c0.319-0.927,1.26-1.389,2.018-1.757   c0.208-0.097,0.397-0.2,0.558-0.29c2.008-1.106,3.804-2.333,5.504-3.769c4.753-3.976,9.366-9.491,12.991-15.532   c8.876-14.791,13.496-31.773,16.846-46.432c0.977-4.302,1.628-9.119,1.865-13.922c0.029-0.533-0.018-1.149-0.068-1.875   c-0.097-1.675-0.215-3.575,0.684-4.799c1.092-1.507,3.489-2.362,5.633-3.131c0.709-0.258,1.378-0.494,1.918-0.734   c1.109-0.48,2.194-0.956,3.293-1.435c5.282-2.326,10.733-4.724,16.473-6.17c0.877-0.225,1.757-0.444,2.638-0.673l3.489-0.873   c0.53-0.132,1.02-0.2,1.435-0.2c0.447,0,0.82,0.079,1.063,0.208c0.805,0.476,0.916,1.342,0.984,2.355l0.029,0.329   c0.1,2.094,0.086,4.402-0.057,6.875c-0.397,8.786-0.973,18.266-2.516,28.044c-0.97,6.138-1.983,12.136-3.55,18.188   c-3.973,15.368-11.85,30.495-23.416,44.968c-0.54,0.673-1.102,1.403-1.704,2.183c-3.232,4.198-6.907,8.947-11.477,10.919   c-1.478,0.637-3.976,0.444-6.231,0.111c-0.526-0.079-1.041-0.154-1.507-0.204C89.97,205.939,85.006,205.016,80.099,203.76z    M110.194,203.978c0.916-1.081,1.9-2.147,2.881-3.214l2.108-2.287c6.378-7.143,12.347-15.937,18.252-26.881   c9.08-16.86,12.064-36.612,13.782-53.711c0.548-5.68,0.816-11.774,0.816-18.12c0-0.512-0.05-1.16-0.1-1.875   c-0.183-2.119-0.376-4.509,0.444-5.766c1.024-1.474,3.976-1.482,6.488-1.485c0.519,0,0.988,0,1.367-0.021   c3.5-0.308,6.521-0.455,9.237-0.455c2.999,0,5.715,0.172,8.561,0.548c0.397,0.05,0.823,0.089,1.267,0.136l0.236,0.021   c1.711,0.157,3.633,0.336,4.975,1.081c1.811,1.092,1.532,4.61,1.349,6.936l-0.018,0.222c-0.039,0.444-0.068,0.848-0.068,1.16   c-0.165,7.283-1.049,15.285-2.681,24.447c-2.312,12.827-6.005,29.518-14.165,44.843c-2.97,5.68-6.975,11.098-10.869,16.105   c-3.318,4.27-6.284,7.716-9.344,10.865c-0.365,0.372-0.727,0.755-1.109,1.188c-1.02,1.106-2.065,2.255-3.403,3.06   c-1.646,1.002-3.769,1.571-5.705,2.083l-1.163,0.308c-5.848,1.664-11.742,2.817-17.518,3.421c-0.336,0.029-0.766,0.093-1.31,0.186   c-0.945,0.161-2.119,0.354-3.114,0.354c-0.82,0-1.421-0.14-1.789-0.408c-0.261-0.2-0.429-0.465-0.458-0.752   C109.074,205.299,109.625,204.601,110.194,203.978z M189.082,48.023c1.274,1.908,2.219,3.368,3.056,4.76l0.15,0.233   c0.494,0.816,0.727,1.464,0.247,2.004c-0.14,0.161-0.419,0.354-0.934,0.354c-0.938,0-2.305-0.626-3.296-1.088l-0.322,0.694l0,0   l0.118-0.787c-0.272-0.125-0.49-0.225-0.641-0.286c-4.012-1.525-8.836-2.788-14.34-3.733c-5.508-0.956-11.284-1.446-17.153-1.446   c-11.266,0-22.808,1.754-34.303,5.2c-8.958,2.72-17.293,6.191-27.053,10.558c-1.092,0.483-2.19,0.956-3.289,1.417l-0.802,0.344   c-2.602,1.106-5.293,2.237-7.859,3.561c-3.003,1.56-6.084,3.121-9.144,4.624c-0.172,0.089-0.365,0.193-0.551,0.308   c-1.099,0.612-2.505,1.21-3.532,0.379c-1.081-0.816-1.968-2.19-2.759-3.421c-0.322-0.501-0.637-0.991-0.952-1.414   c-3.561-5.043-6.338-10.139-8.256-15.171c-0.15-0.376-0.354-0.83-0.58-1.342c-0.837-1.814-2.112-4.563-1.088-6.055   c0.762-1.074,2.391-1.843,3.822-2.516l0.233-0.115c0.562-0.268,1.099-0.523,1.517-0.787c6.016-3.743,12.737-6.478,18.671-8.876   c20.056-8.174,38.995-12.132,57.881-12.132c3.368,0,6.768,0.125,10.1,0.387c1.195,0.089,2.419,0.165,3.654,0.24   c7.322,0.426,15.615,0.909,21.613,5.826C178.589,34.094,183.893,40.239,189.082,48.023z M40.331,27.949   c1.367-0.387,3.5-0.809,5.408-0.809c1.088,0,1.979,0.136,2.591,0.412c1.267,0.551,1.131,3.017,1.02,5.007l-0.011,0.297   c-0.029,0.558-0.05,1.038-0.011,1.353c0.608,6.785,1.911,12.658,3.994,17.966c4.939,12.308,10.268,21.348,16.81,28.438   c3.242,3.557,7.032,6.578,11.309,9.885c3.575,2.777,7.491,5.358,10.951,7.63c2.054,1.342,4.098,2.691,6.102,4.087   c0.476,0.329,1.074,0.659,1.764,1.034c1.804,1.002,3.854,2.14,4.355,3.822c0.712,2.452,0.358,5.304,0.047,7.877l-0.154,1.285   c-0.662,6.603-2.004,13.521-3.99,20.578l-0.58,2.054c-0.422,1.503-0.848,2.999-1.331,4.477c-0.444,1.274-1.174,2.401-2.745,2.015   c-1.968-0.48-4.062-1.782-6.048-3.017c-0.562-0.354-1.109-0.687-1.621-0.977c-6.163-3.55-11.467-7.057-16.23-10.729   c-24.98-19.172-42.331-42.878-48.844-66.746l-0.222-0.841c-1.281-4.792-2.609-9.745-1.571-14.705   c0.397-1.99,1.865-3.79,3.164-5.383l0.97-1.206c0.455-0.58,0.916-1.174,1.381-1.793C30.357,35.328,34.748,29.563,40.331,27.949z" fill="#acacac"/>
</g>
<g>
</g>
<g>
</g>
<g>
</g>
<g>
</g>
<g>
</g>
<g>
</g>
<g>
</g>
<g>
</g>
<g>
</g>
<g>
</g>
<g>
</g>
<g>
</g>
<g>
</g>
<g>
</g>
<g>
</g>
</svg>
